<?xml version="1.0" encoding="UTF-8"?>
<svg version="1.1" xmlns="http://www.w3.org/2000/svg" width="871" height="209">
<path d="M0 0 C19.73701083 20.13201006 28.04784677 45.05441032 28.0625 72.79296875 C28.07474609 74.03240234 28.08699219 75.27183594 28.09960938 76.54882812 C28.10154297 77.72896484 28.10347656 78.90910156 28.10546875 80.125 C28.10957764 81.20112549 28.11368652 82.27725098 28.11791992 83.38598633 C27.875 85.98046875 27.875 85.98046875 25.875 87.98046875 C25.2838333 85.29516918 24.84721041 82.68905357 24.5859375 79.94921875 C22.26145785 55.94761489 12.24886622 34.33090889 -6.00390625 18.48046875 C-24.96321486 3.53518153 -45.58842403 -1.2236691 -69.22900391 1.19580078 C-91.00069035 4.16902668 -110.87504647 16.7762948 -124.17578125 34.04296875 C-135.83797643 51.61806048 -140.78902575 70.88791238 -137.375 91.85546875 C-133.92654028 107.66090913 -125.47598573 121.71679163 -111.8125 130.79296875 C-96.7169956 139.67021405 -80.71056714 143.17106156 -63.375 139.37890625 C-51.13382098 135.98272548 -40.6726312 129.55771602 -33.6328125 118.78515625 C-27.90970662 108.13958624 -26.59333528 97.97755384 -29.6875 86.41796875 C-32.53409924 77.93809943 -37.11507883 71.30734921 -45.03515625 66.9140625 C-53.05504716 63.33134488 -61.42193611 63.09913259 -69.765625 65.8515625 C-76.9643216 69.04239581 -82.96751143 74.29152693 -86.296875 81.52734375 C-88.55497792 88.21644109 -88.62288576 94.38466903 -86.125 100.98046875 C-82.82318982 107.09693678 -78.71935024 110.79003772 -72.125 112.98046875 C-68.81121201 113.80418177 -65.49835693 114.45510988 -62.125 114.98046875 C-62.455 115.97046875 -62.785 116.96046875 -63.125 117.98046875 C-69.47252778 120.83685625 -76.41235615 122.0033025 -83.125 119.98046875 C-92.57346266 115.97892437 -99.84778908 110.51723738 -104.30078125 101.16796875 C-108.9806545 88.74745206 -108.3480164 76.13134371 -103.125 63.98046875 C-97.15324265 52.06863446 -87.48147636 43.0398134 -75.125 37.98046875 C-58.75832583 32.94456901 -42.56489013 33.81468101 -27.25 41.79296875 C-13.89518634 49.66990974 -13.89518634 49.66990974 -12.125 54.98046875 C-11.465 54.98046875 -10.805 54.98046875 -10.125 54.98046875 C2.47437732 69.61097994 5.72982614 87.24178005 4.875 105.98046875 C3.01165247 124.95999427 -6.38067248 142.92356889 -20.91796875 155.1953125 C-39.76336636 170.43840402 -61.21613888 175.83392693 -85.125 175.98046875 C-86.16914062 175.99335938 -87.21328125 176.00625 -88.2890625 176.01953125 C-112.25119672 175.14204464 -136.19338053 161.81306239 -152.4921875 144.95703125 C-168.55371856 126.79844569 -178.31639378 103.28747915 -178.125 78.98046875 C-178.13144531 78.29339844 -178.13789063 77.60632813 -178.14453125 76.8984375 C-178.30514814 47.61262466 -165.38194905 21.10919442 -145.5625 0.04296875 C-136.45367075 -8.77953188 -125.75415887 -16.00696277 -114.125 -21.01953125 C-113.11179687 -21.46941406 -112.09859375 -21.91929688 -111.0546875 -22.3828125 C-102.56960943 -25.91652437 -94.16060473 -27.65761578 -85.125 -29.01953125 C-84.21492188 -29.17550781 -83.30484375 -29.33148437 -82.3671875 -29.4921875 C-53.02460314 -33.493449 -20.73853168 -20.40790801 0 0 Z " fill="#0284D1" transform="translate(180.125,32.01953125)"/>
<path d="M0 0 C3.81248426 -0.02887236 7.6249407 -0.04675492 11.4375 -0.0625 C12.52611328 -0.07087891 13.61472656 -0.07925781 14.73632812 -0.08789062 C15.77080078 -0.09111328 16.80527344 -0.09433594 17.87109375 -0.09765625 C18.82943115 -0.10289307 19.78776855 -0.10812988 20.77514648 -0.11352539 C23 0 23 0 24 1 C24.12281952 2.62579218 24.17782504 4.25677004 24.20532227 5.88696289 C24.22526749 6.92796646 24.24521271 7.96897003 24.26576233 9.04151917 C24.28247482 10.1737944 24.29918732 11.30606964 24.31640625 12.47265625 C24.33718735 13.62543564 24.35796844 14.77821503 24.37937927 15.96592712 C24.44499964 19.66472157 24.50381755 23.36358959 24.5625 27.0625 C24.60567335 29.56315879 24.64928724 32.06381001 24.69335938 34.56445312 C24.80069368 40.70955662 24.90243643 46.85473404 25 53 C25.72662842 52.00709961 26.45325684 51.01419922 27.2019043 49.99121094 C32.03899045 43.3856149 36.87688605 36.78251273 41.8125 30.25 C45.15822908 25.81055046 48.48026148 21.35546456 51.765625 16.87109375 C52.39750732 16.0090332 53.02938965 15.14697266 53.68041992 14.25878906 C54.91200989 12.57619657 56.14142819 10.89201181 57.3684082 9.20605469 C57.92874756 8.44067383 58.48908691 7.67529297 59.06640625 6.88671875 C59.56084229 6.20826904 60.05527832 5.52981934 60.56469727 4.83081055 C61.03834717 4.22664307 61.51199707 3.62247559 62 3 C62.44335693 2.4323291 62.88671387 1.8646582 63.34350586 1.27978516 C65.7150094 -0.55240667 67.4682127 -0.37240008 70.4375 -0.36328125 C71.49710937 -0.36263672 72.55671875 -0.36199219 73.6484375 -0.36132812 C75.30746094 -0.3371582 75.30746094 -0.3371582 77 -0.3125 C78.65902344 -0.31733398 78.65902344 -0.31733398 80.3515625 -0.32226562 C88.59938076 -0.26707949 88.59938076 -0.26707949 92 2 C91.443125 2.66644531 90.88625 3.33289062 90.3125 4.01953125 C85.67377364 9.62204704 81.25644888 15.29268542 77.015625 21.203125 C74.95920745 24.05660361 72.86277755 26.87552988 70.75 29.6875 C70.00621094 30.6775 69.26242187 31.6675 68.49609375 32.6875 C66.65895586 35.1280446 64.81621488 37.56430308 62.97265625 40 C61.91926284 41.3958273 60.86587735 42.79166058 59.8125 44.1875 C59.32555664 44.82840576 58.83861328 45.46931152 58.33691406 46.12963867 C54.6947616 50.96097734 51.31173151 55.93718772 48 61 C56.2630936 71.88475667 64.55417783 82.74420604 72.96899414 93.51220703 C77.39169172 99.18500465 81.72614607 104.91977154 86.00683594 110.70043945 C88.19790508 113.64902592 90.41850792 116.50178361 92.83984375 119.265625 C95 122 95 122 95 125 C90.50112115 125.26297403 86.00422868 125.42174285 81.5 125.5625 C79.59734375 125.67561523 79.59734375 125.67561523 77.65625 125.79101562 C68.43530878 126.00713143 68.43530878 126.00713143 64.5480957 123.27954102 C62.45308667 120.96567679 60.72487644 118.59973098 59 116 C57.85122008 114.48297175 56.69893488 112.96859082 55.54296875 111.45703125 C54.42057481 109.9116824 53.30216346 108.36343411 52.1875 106.8125 C47.21929803 99.98422242 42.15283747 93.2679649 36.890625 86.6640625 C32.54098279 81.15059711 28.28178853 75.56632509 24 70 C24 87.82 24 105.64 24 124 C20.72743232 124.81814192 18.52006101 125.11871834 15.234375 125.09765625 C14.34492188 125.09443359 13.45546875 125.09121094 12.5390625 125.08789062 C11.15847656 125.07532227 11.15847656 125.07532227 9.75 125.0625 C8.81414062 125.05798828 7.87828125 125.05347656 6.9140625 125.04882812 C4.60930959 125.03706918 2.30468773 125.02063426 0 125 C-1.56028369 121.52966564 -2.25057993 118.82053396 -2.25396729 115.02183533 C-2.25960693 114.04470078 -2.26524658 113.06756622 -2.27105713 112.06082153 C-2.26700867 111.00039642 -2.26296021 109.93997131 -2.25878906 108.84741211 C-2.26404602 107.15883339 -2.26404602 107.15883339 -2.26940918 105.43614197 C-2.27820914 101.71647977 -2.27238372 97.99700787 -2.265625 94.27734375 C-2.26697205 91.6933234 -2.26891292 89.1093033 -2.27142334 86.52528381 C-2.27437218 81.11082308 -2.27027511 75.69643388 -2.26074219 70.28198242 C-2.24985297 64.02498309 -2.25338835 57.76811406 -2.264395 51.51111788 C-2.27456766 45.48670333 -2.27348721 39.46235248 -2.26763153 33.43792915 C-2.26629577 30.87622624 -2.26794019 28.31452001 -2.27259064 25.75282097 C-2.27765894 22.17618825 -2.2699413 18.59980729 -2.25878906 15.02319336 C-2.26283752 13.96074402 -2.26688599 12.89829468 -2.27105713 11.8036499 C-2.26541748 10.82933517 -2.25977783 9.85502045 -2.25396729 8.85118103 C-2.25321323 8.00593841 -2.25245918 7.16069578 -2.25168228 6.28983974 C-1.97746364 3.79496114 -1.2513932 2.15761316 0 0 Z " fill="#0584D0" transform="translate(249,43)"/>
<path d="M0 0 C0.88816406 0.00193359 1.77632812 0.00386719 2.69140625 0.00585938 C3.61566406 0.01810547 4.53992188 0.03035156 5.4921875 0.04296875 C6.42417969 0.04361328 7.35617187 0.04425781 8.31640625 0.04492188 C15.22690591 0.09018716 15.22690591 0.09018716 16.3671875 1.23046875 C16.46321772 2.85003215 16.48906605 4.47379958 16.48744202 6.09620667 C16.48950401 7.67592255 16.48950401 7.67592255 16.49160767 9.28755188 C16.48621475 11.03542244 16.48621475 11.03542244 16.48071289 12.81860352 C16.48085892 14.03794586 16.48100494 15.25728821 16.4811554 16.51358032 C16.48057643 19.86674386 16.47554718 23.21984649 16.46858144 26.57299924 C16.46234733 30.07372437 16.46174406 33.57445023 16.46055603 37.07518005 C16.45744288 43.70856531 16.44922972 50.34193416 16.43920654 56.97531217 C16.42804489 64.52537082 16.42253482 72.07543024 16.41751111 79.62549508 C16.40704709 95.16049581 16.38944797 110.69548017 16.3671875 126.23046875 C11.52028199 126.95971331 6.89731099 127.36592744 1.9921875 127.35546875 C0.76757812 127.35804688 -0.45703125 127.360625 -1.71875 127.36328125 C-4.6328125 127.23046875 -4.6328125 127.23046875 -5.6328125 126.23046875 C-5.77396411 123.55988024 -5.67528357 120.90614637 -5.6328125 118.23046875 C-6.09429688 118.6171875 -6.55578125 119.00390625 -7.03125 119.40234375 C-14.81153569 125.61427146 -22.68296217 128.78160332 -32.6328125 129.23046875 C-33.7671875 129.31296875 -34.9015625 129.39546875 -36.0703125 129.48046875 C-45.98507761 128.78469576 -56.06881124 124.79486598 -62.90234375 117.4609375 C-72.77046252 104.74153385 -76.05320347 90.08074071 -74.6328125 74.23046875 C-72.64129723 62.3999197 -68.34614686 51.04018743 -58.56640625 43.50390625 C-48.38599353 36.7992304 -36.88282186 33.53174049 -24.71875 35.765625 C-18.70419648 37.13121221 -13.78409163 38.83530751 -8.6328125 42.23046875 C-7.20542986 41.03450796 -7.20542986 41.03450796 -7.56689453 37.56860352 C-7.58746718 35.9363053 -7.61236488 34.30405822 -7.640625 32.671875 C-7.6581414 30.90690679 -7.67504967 29.14193246 -7.69140625 27.37695312 C-7.72240624 24.58080351 -7.75794507 21.78495496 -7.80419922 18.98901367 C-7.84641257 16.29992845 -7.86994503 13.6112002 -7.890625 10.921875 C-7.91855637 9.66244835 -7.91855637 9.66244835 -7.947052 8.37757874 C-7.95751953 6.02172852 -7.95751953 6.02172852 -7.6328125 2.23046875 C-4.44830035 0.10746065 -3.64807887 -0.01837369 0 0 Z M-46.6328125 63.23046875 C-52.01146249 70.70081596 -53.17032356 78.79312722 -52.1328125 87.85546875 C-50.75347912 95.33946473 -47.43466206 100.10840781 -42.4453125 105.66796875 C-36.10652708 109.1895162 -28.75261813 110.08306191 -21.765625 108.1171875 C-14.88436687 105.25629813 -10.72251295 100.90422172 -7.6328125 94.23046875 C-5.17279353 86.93296282 -5.22311429 74.91633569 -8.53515625 67.96875 C-12.47788457 61.72492758 -16.19855725 57.52810839 -23.51171875 55.62890625 C-32.39893334 53.95948472 -40.38815325 56.84058486 -46.6328125 63.23046875 Z " fill="#0483CF" transform="translate(600.6328125,40.76953125)"/>
<path d="M0 0 C8.56368645 8.26425686 13.78871591 19.84443415 14.09765625 31.76953125 C14.09108215 33.11722242 14.07926444 34.46489707 14.0625 35.8125 C14.05798828 36.50537109 14.05347656 37.19824219 14.04882812 37.91210938 C14.03713156 39.60811068 14.01919924 41.30406703 14 43 C8.30503578 44.22366155 2.73286291 44.10966855 -3.05859375 44.0625 C-4.12110855 44.05871338 -5.18362335 44.05492676 -6.27833557 44.05102539 C-10.80775717 44.03473004 -15.33708726 44.00658132 -19.86645508 43.97949219 C-23.18049703 43.96137094 -26.49452422 43.94930015 -29.80859375 43.9375 C-30.82545761 43.92920166 -31.84232147 43.92090332 -32.88999939 43.91235352 C-38.04369588 43.89464108 -42.92244047 44.10054913 -48 45 C-45.41703304 52.43144126 -42.99378289 57.10450741 -36.5 61.8125 C-29.84932572 64.06897877 -22.04749251 64.3613453 -15.5625 61.375 C-13.60840249 60.31407467 -12.19804665 59.2382083 -10.77441406 57.52587891 C-8.64754437 55.03766215 -7.10078082 53.24660068 -3.83129883 52.51416016 C-1.40349055 52.41095628 0.94997216 52.47416095 3.375 52.625 C4.20644531 52.65207031 5.03789062 52.67914063 5.89453125 52.70703125 C7.93081888 52.77724806 9.96575833 52.88485425 12 53 C12.33 53.66 12.66 54.32 13 55 C7.61521748 67.38904851 -0.67225015 76.25485404 -13.25 81.375 C-24.84087115 85.15143334 -36.4560318 84.90841099 -47.5703125 79.82421875 C-58.11816423 74.20217896 -65.62782229 66.09574492 -69.4375 54.625 C-73.48705388 39.41667542 -72.44398999 24.98109795 -65 11 C-57.30830334 -0.89022104 -47.43001123 -6.11510328 -34.0625 -9.8125 C-21.48179758 -10.58274709 -10.07763348 -7.67200485 0 0 Z M-41.390625 14.3671875 C-44.53227378 17.55458845 -48 22.39309568 -48 27 C-35.79 27 -23.58 27 -11 27 C-9.65184813 23.28625879 -9.65184813 23.28625879 -10.8203125 21 C-14.33550365 15.61144351 -17.46968828 11.60712866 -23.8125 9.625 C-30.42158184 8.24603744 -36.1183303 10.32831955 -41.390625 14.3671875 Z " fill="#0785D1" transform="translate(412,86)"/>
<path d="M0 0 C11.12687431 9.57573012 17.02043322 20.80793865 18.31640625 35.58203125 C18.58609558 48.43722272 14.7982862 61.07440194 6.0625 70.6875 C-3.31553367 80.17567836 -11.95763931 85.489879 -25.48828125 85.7578125 C-39.97814683 85.25458939 -50.46789586 80.15710414 -60.625 70 C-69.62621933 58.3421708 -72.32972665 45.03787616 -70.9375 30.6875 C-68.60066324 18.53860432 -62.79713424 7.37076012 -52.9375 -0.3125 C-36.1231443 -10.50988553 -16.56757868 -12.24315984 0 0 Z M-43.25 21.25 C-47.83700472 27.89238388 -49.91530695 36.46691496 -48.578125 44.4609375 C-46.22013896 52.6563768 -42.23889346 59.28864596 -34.6875 63.5 C-28.70999564 65.39287638 -23.56844395 65.70110495 -17.75 63.125 C-11.240247 59.44219153 -7.1792963 53.76685675 -4.9375 46.6875 C-3.1372655 37.63050626 -4.33164332 30.44992772 -8.75 22.375 C-12.62516773 17.61407965 -17.17786657 13.24210431 -23.453125 12.31640625 C-32.33168327 12.10078412 -37.49896752 14.4981751 -43.25 21.25 Z " fill="#0384D0" transform="translate(850.9375,84.3125)"/>
<path d="M0 0 C0.87269531 0.09410156 1.74539063 0.18820313 2.64453125 0.28515625 C15.29929866 2.10815072 24.63755792 8.44972002 32.8203125 18.16015625 C40.29086354 28.50255228 42.92257427 40.86048116 41.375 53.375 C38.91228342 67.23797414 32.65435986 78.18908776 21.24609375 86.5 C11.45071825 93.04160729 0.03555973 95.5835517 -11.65234375 93.53515625 C-23.89217605 90.63398983 -33.60066697 83.63448538 -40.75 73.3125 C-47.63580975 61.24482665 -49.45801928 46.0363689 -45.875 32.5625 C-41.35082615 20.33670927 -34.05610095 9.6841684 -22 4 C-14.71288967 1.17948141 -7.83156642 -0.88839759 0 0 Z M-14 24 C-14.845625 24.515625 -15.69125 25.03125 -16.5625 25.5625 C-21.96388435 30.96388435 -24.66441773 37.83728704 -25.0703125 45.41796875 C-24.79121753 55.66695633 -21.95249536 62.66692748 -14.48828125 69.7421875 C-10.35243693 73.23757299 -5.86895482 73.50765058 -0.625 73.3671875 C4.95150808 72.58714024 9.16775045 70.13435493 12.82421875 65.875 C18.57187636 57.63622687 19.96660858 49.9524883 19 40 C17.00407146 32.72834684 12.91609706 26.43834478 6.3125 22.625 C-0.55476505 19.52239821 -7.67436899 19.88098446 -14 24 Z " fill="#0384D0" transform="translate(731,76)"/>
<path d="M0 0 C6.52903638 4.48318746 11.20385192 10.69476763 13.01953125 18.38671875 C14.21061915 26.24023208 14.15078955 34.12718863 14.1171875 42.05078125 C14.11577255 43.32400238 14.1143576 44.59722351 14.11289978 45.9090271 C14.1082813 49.25936853 14.0993301 52.60963902 14.0881958 55.95996094 C14.07788245 59.39257196 14.07338111 62.82519038 14.06835938 66.2578125 C14.05738179 72.96746715 14.0406826 79.67708887 14.01953125 86.38671875 C6.6171875 87.515625 6.6171875 87.515625 2.8359375 87.484375 C1.78696289 87.47954102 1.78696289 87.47954102 0.71679688 87.47460938 C0.01232422 87.46623047 -0.69214844 87.45785156 -1.41796875 87.44921875 C-2.5152832 87.44245117 -2.5152832 87.44245117 -3.63476562 87.43554688 C-5.41670294 87.42390023 -7.19859738 87.40597066 -8.98046875 87.38671875 C-10.22752065 81.65149666 -10.05506129 76.04697962 -9.97265625 70.21484375 C-9.95513447 68.00130671 -9.93822672 65.78776474 -9.921875 63.57421875 C-9.89099024 60.10728132 -9.85552066 56.64059401 -9.80908203 53.17382812 C-9.76646651 49.8124694 -9.74322341 46.45140037 -9.72265625 43.08984375 C-9.70403534 42.06658997 -9.68541443 41.04333618 -9.66622925 39.98907471 C-9.64321911 33.45486508 -10.29829777 27.41990357 -12.98046875 21.38671875 C-15.0757058 19.68052238 -15.0757058 19.68052238 -17.98046875 19.38671875 C-18.64304687 19.17402344 -19.305625 18.96132812 -19.98828125 18.7421875 C-26.02283233 16.94443796 -30.38614806 17.52450816 -35.98046875 20.38671875 C-38.96301681 22.43722054 -40.66555983 23.81320081 -41.39233398 27.44470215 C-41.97202015 34.05359792 -42.09610198 40.59835871 -42.04296875 47.23046875 C-42.03918213 48.32137817 -42.03539551 49.4122876 -42.03149414 50.53625488 C-42.019373 53.9864516 -42.00072408 57.43656081 -41.98046875 60.88671875 C-41.95394812 65.45963288 -41.93395396 70.03250709 -41.91796875 74.60546875 C-41.90967041 75.6574646 -41.90137207 76.70946045 -41.89282227 77.79333496 C-41.88786743 79.24624939 -41.88786743 79.24624939 -41.8828125 80.72851562 C-41.87495728 82.00897766 -41.87495728 82.00897766 -41.86694336 83.31530762 C-41.98046875 85.38671875 -41.98046875 85.38671875 -42.98046875 87.38671875 C-50.24046875 87.38671875 -57.50046875 87.38671875 -64.98046875 87.38671875 C-65.17874601 76.09533204 -65.36423195 64.80393571 -65.52705669 53.51198101 C-65.6031731 48.26896562 -65.6849454 43.0261644 -65.77954102 37.78344727 C-65.87058441 32.72616388 -65.94690472 27.66885495 -66.01291847 22.61118507 C-66.04074044 20.67935683 -66.07391297 18.74759815 -66.112463 16.81595421 C-66.16545871 14.11516448 -66.19961034 11.41475576 -66.22924805 8.71362305 C-66.24938461 7.91089462 -66.26952118 7.1081662 -66.29026794 6.28111267 C-66.32172889 0.88267987 -66.32172889 0.88267987 -64.60095215 -1.61816406 C-62.37106893 -2.98750553 -60.90941604 -2.86944953 -58.3125 -2.6875 C-57.41982422 -2.63271484 -56.52714844 -2.57792969 -55.60742188 -2.52148438 C-54.21426758 -2.41223633 -54.21426758 -2.41223633 -52.79296875 -2.30078125 C-51.85259766 -2.23955078 -50.91222656 -2.17832031 -49.94335938 -2.11523438 C-47.62105918 -1.96198614 -45.30075417 -1.79415265 -42.98046875 -1.61328125 C-42.65046875 0.36671875 -42.32046875 2.34671875 -41.98046875 4.38671875 C-41.09359375 3.64421875 -40.20671875 2.90171875 -39.29296875 2.13671875 C-27.44786853 -6.31374909 -12.61971553 -6.69566761 0 0 Z " fill="#0784CE" transform="translate(501.98046875,80.61328125)"/>
<path d="M0 0 C1 1 1 1 1.11352539 2.94946289 C1.10828857 3.7821167 1.10305176 4.61477051 1.09765625 5.47265625 C1.09443359 6.37177734 1.09121094 7.27089844 1.08789062 8.19726562 C1.07532227 9.61555664 1.07532227 9.61555664 1.0625 11.0625 C1.05798828 12.01189453 1.05347656 12.96128906 1.04882812 13.93945312 C1.0370011 16.29303065 1.02052025 18.64648477 1 21 C-0.35931641 21.03867188 -0.35931641 21.03867188 -1.74609375 21.078125 C-10.52121081 21.48670188 -17.23823079 22.49132795 -24.375 27.75 C-29.38518075 34.68717335 -29.39034598 41.63607033 -29.22265625 49.8671875 C-29.21366806 50.98312286 -29.20467987 52.09905823 -29.19541931 53.24880981 C-29.16553627 56.7911984 -29.11570868 60.33289068 -29.0625 63.875 C-29.01472766 67.43848043 -28.97143853 71.00179414 -28.94029236 74.56546021 C-28.92047251 76.77803791 -28.89077472 78.99055305 -28.85035706 81.20285034 C-28.84052292 82.1979361 -28.83068878 83.19302185 -28.82055664 84.21826172 C-28.8070668 85.09570038 -28.79357697 85.97313904 -28.77967834 86.87716675 C-29 89 -29 89 -31 91 C-33.06298828 91.22705078 -33.06298828 91.22705078 -35.5703125 91.1953125 C-36.46621094 91.18886719 -37.36210938 91.18242187 -38.28515625 91.17578125 C-39.69087891 91.15064453 -39.69087891 91.15064453 -41.125 91.125 C-42.54232422 91.11146484 -42.54232422 91.11146484 -43.98828125 91.09765625 C-46.32577292 91.07404522 -48.66276123 91.04111516 -51 91 C-53.20602285 86.5890746 -53.23915436 82.54222692 -53.13525391 77.72143555 C-53.12579239 76.90140549 -53.11633087 76.08137543 -53.10658264 75.23649597 C-53.07300747 72.53633835 -53.02486443 69.83664971 -52.9765625 67.13671875 C-52.95038479 65.2605765 -52.92511863 63.38442132 -52.90072632 61.508255 C-52.83417912 56.577826 -52.7552638 51.6476698 -52.67376709 46.71746826 C-52.59274573 41.68349655 -52.52342868 36.64936516 -52.453125 31.61523438 C-52.31353468 21.74328931 -52.15979555 11.8716387 -52 2 C-44.74 2 -37.48 2 -30 2 C-29 8 -29 8 -30 10 C-29.34 10 -28.68 10 -28 10 C-27.814375 9.4225 -27.62875 8.845 -27.4375 8.25 C-24.39158352 3.48247855 -18.60011032 1.49373765 -13.26171875 0.30859375 C-8.86943842 -0.29069839 -4.41817958 -0.33388703 0 0 Z " fill="#0884CE" transform="translate(682,77)"/>
<path d="M0 0 C5.78461538 4.43076923 5.78461538 4.43076923 6.875 7.3125 C6.936875 8.1478125 6.936875 8.1478125 7 9 C7.66 9 8.32 9 9 9 C9.33 9.66 9.66 10.32 10 11 C10.61875 10.835 11.2375 10.67 11.875 10.5 C14 10 14 10 16 10 C16 7.69 16 5.38 16 3 C26.71321324 16.11122899 27.2479172 35.3426189 27.3125 51.4375 C27.31805908 52.64164551 27.32361816 53.84579102 27.3293457 55.08642578 C27.25682388 63.74317612 27.25682388 63.74317612 25 66 C24.4088333 63.31470043 23.97221041 60.70858482 23.7109375 57.96875 C21.85869621 38.84328177 15.01599008 18.4089543 1.25 4.55078125 C0 3 0 3 0 0 Z " fill="#117EC7" transform="translate(181,54)"/>
<path d="M0 0 C0.93423645 3.01031744 1.04449911 3.86650268 0 7 C-0.50016154 16.09909256 -0.75510568 24.53727402 3 33 C3.66666667 35 4.33333333 37 5 39 C5.66 39 6.32 39 7 39 C7.37125 39.66 7.7425 40.32 8.125 41 C9.77406895 43.18104474 9.77406895 43.18104474 11.97265625 43.265625 C13.98367086 43.25143795 15.99324516 43.13159048 18 43 C17.67 43.99 17.34 44.98 17 46 C17.66 46 18.32 46 19 46 C19.33 44.02 19.66 42.04 20 40 C18.68 40 17.36 40 16 40 C14.87137825 34.63904667 14.90311779 29.44693314 15 24 C15.33 24 15.66 24 16 24 C16.07476562 24.556875 16.14953125 25.11375 16.2265625 25.6875 C17.42387607 32.63661405 19.98345278 38.09532958 25.8203125 42.31640625 C30.89298728 45.09918938 36.32806498 46.11666586 42 47 C41.67 47.99 41.34 48.98 41 50 C34.65247222 52.8563875 27.71264385 54.02283375 21 52 C11.55153734 47.99845562 4.27721092 42.53676863 -0.17578125 33.1875 C-4.31835599 22.19298885 -4.57632983 10.86878336 0 0 Z " fill="#158AD2" transform="translate(76,100)"/>
<path d="M0 0 C0.33 0 0.66 0 1 0 C1.33 17.16 1.66 34.32 2 52 C5.63 47.05 9.26 42.1 13 37 C15.03585284 34.26593897 17.07364774 31.53474412 19.125 28.8125 C20.12240446 27.48568357 21.11980019 26.15886057 22.1171875 24.83203125 C22.59768555 24.19346191 23.07818359 23.55489258 23.57324219 22.89697266 C25.80199645 19.93369055 28.02591699 16.96678868 30.25 14 C31.5 12.33333333 32.75 10.66666667 34 9 C34.495 9.99 34.495 9.99 35 11 C34.59007812 11.60328125 34.18015625 12.2065625 33.7578125 12.828125 C33.21898437 13.62734375 32.68015625 14.4265625 32.125 15.25 C31.59132813 16.03890625 31.05765625 16.8278125 30.5078125 17.640625 C28.98992397 19.91611796 28.98992397 19.91611796 27.953125 22.1484375 C26.5193851 24.93365354 24.20655932 26.79344068 22 29 C21.278125 30.093125 20.55625 31.18625 19.8125 32.3125 C19.214375 33.199375 18.61625 34.08625 18 35 C17.34 35 16.68 35 16 35 C14.03698408 38.50538557 13.04097612 42.13351728 12 46 C9.525 46.495 9.525 46.495 7 47 C6.67 48.32 6.34 49.64 6 51 C5.34 51 4.68 51 4 51 C3.505 53.475 3.505 53.475 3 56 C1.68 56 0.36 56 -1 56 C-1.02528903 48.34619856 -1.04284104 40.69240783 -1.05493164 33.03857422 C-1.0599703 30.43310137 -1.0668013 27.82763137 -1.07543945 25.22216797 C-1.08752544 21.48404236 -1.09323288 17.74595403 -1.09765625 14.0078125 C-1.10281754 12.83695099 -1.10797882 11.66608948 -1.11329651 10.45974731 C-1.11337204 9.37877777 -1.11344757 8.29780823 -1.11352539 7.18408203 C-1.115746 6.22921906 -1.11796661 5.27435608 -1.12025452 4.29055786 C-1 2 -1 2 0 0 Z " fill="#1A6DAD" transform="translate(272,44)"/>
<path d="M0 0 C0.66 0 1.32 0 2 0 C0.42606529 3.55592658 -1.75853638 6.28988262 -4.1875 9.3125 C-16.82854653 25.74227655 -20.74465156 44.70425673 -18.68359375 65.13671875 C-17.0276262 75.59467595 -13.29103492 84.50710286 -7 93 C-7.495 93.99 -7.495 93.99 -8 95 C-19.82638615 81.82202686 -22.96656952 66.17371084 -22.3984375 48.86328125 C-21.96852848 41.92586406 -20.22199708 35.56867751 -18 29 C-17.62617187 27.87335938 -17.25234375 26.74671875 -16.8671875 25.5859375 C-16.58101562 24.73257813 -16.29484375 23.87921875 -16 23 C-15.34 23 -14.68 23 -14 23 C-13.7834375 21.8553125 -13.7834375 21.8553125 -13.5625 20.6875 C-13 18 -13 18 -12 15 C-11.34 15 -10.68 15 -10 15 C-9.61521484 14.17048828 -9.61521484 14.17048828 -9.22265625 13.32421875 C-7.81916624 10.65624254 -6.17841485 8.27304145 -4.4375 5.8125 C-3.81746094 4.93207031 -3.19742188 4.05164062 -2.55859375 3.14453125 C-1 1 -1 1 0 0 Z " fill="#1A73B3" transform="translate(61,56)"/>
<path d="M0 0 C0.99 0.33 1.98 0.66 3 1 C2.443125 1.598125 1.88625 2.19625 1.3125 2.8125 C-7.92865007 15.55030145 -8.35361152 30.20310293 -6.375 45.3125 C-4.66818435 54.08867976 -1.17484048 61.58946456 6 67 C7.3125 69.25 7.3125 69.25 8 71 C2.90781196 70.1129737 0.88297192 67.06439598 -2 63 C-9.84713399 50.4137261 -11.85606005 35.55961848 -9.30859375 21.06640625 C-7.41275866 13.18956842 -4.67433617 6.62197625 0 0 Z " fill="#1B71B4" transform="translate(536,90)"/>
<path d="M0 0 C3.86510729 1.49154419 7.57700602 3.2105418 11.3125 5 C26.25682275 11.86270017 41.20824089 12.25162745 57 8 C58.26849229 7.46134289 59.52931775 6.9042238 60.78125 6.328125 C64 5 64 5 67 6 C66.05125 6.433125 65.1025 6.86625 64.125 7.3125 C60.79958063 8.79302201 60.79958063 8.79302201 59 12 C59 11.34 59 10.68 59 10 C58.36578125 10.2165625 57.7315625 10.433125 57.078125 10.65625 C42.24571644 15.08138846 24.90823633 14.95411817 11 8 C7.74899636 7.74803177 7.74899636 7.74803177 5 8 C4.9175 7.4225 4.835 6.845 4.75 6.25 C3.79468987 3.3840696 2.21530827 2.0009236 0 0 Z " fill="#1C76B7" transform="translate(65,162)"/>
<path d="M0 0 C0.99 0.495 0.99 0.495 2 1 C-16.5827132 13.75284239 -39.74307939 16.35606841 -61.75 14.44921875 C-64 14 -64 14 -67 12 C-64.68802845 11.80609271 -62.3753971 11.62003633 -60.0625 11.4375 C-58.77472656 11.33308594 -57.48695312 11.22867188 -56.16015625 11.12109375 C-55.11730469 11.08113281 -54.07445313 11.04117188 -53 11 C-52.67 11.33 -52.34 11.66 -52 12 C-42.96994032 12.40557732 -33.98364931 11.93684239 -25 11 C-25 10.34 -25 9.68 -25 9 C-23.72125 8.7525 -22.4425 8.505 -21.125 8.25 C-14.53878976 6.78755017 -8.47968579 4.284123 -2.5 1.1875 C-1.2625 0.5996875 -1.2625 0.5996875 0 0 Z " fill="#1970B2" transform="translate(147,193)"/>
<path d="M0 0 C5.0410107 1.44028877 6.90045007 3.97896225 10 8 C10.66 8.66 11.32 9.32 12 10 C16.3501984 21.1473834 19.15569447 36.21201604 14.5390625 47.60546875 C12.04496738 51.58865442 9.92484278 54.38343815 6 57 C7.14751204 53.93996789 8.47548666 51.07156068 10 48.1875 C15.34461728 37.51820804 15.06236645 27.3683465 11.34375 16.1328125 C8.83468892 10.28319917 5.30209499 5.53472999 0 2 C0 1.34 0 0.68 0 0 Z " fill="#166EB1" transform="translate(138,99)"/>
<path d="M0 0 C-3.1412187 0.98291964 -4.07465562 0.97963938 -7.4375 0.0625 C-17.51095465 -2.64240912 -28.62323124 -1.59617712 -38 3 C-39.40220711 5.01674708 -39.40220711 5.01674708 -40 7 C-40.66 7 -41.32 7 -42 7 C-42.33 7.66 -42.66 8.32 -43 9 C-43.804375 9.12375 -44.60875 9.2475 -45.4375 9.375 C-48.15983399 9.72567164 -48.15983399 9.72567164 -49.3125 12.0625 C-49.539375 12.701875 -49.76625 13.34125 -50 14 C-51.32 13.67 -52.64 13.34 -54 13 C-39.37569526 -2.67445428 -20.36383236 -8.71689227 0 0 Z " fill="#2480C0" transform="translate(747,80)"/>
<path d="M0 0 C7.06958724 0.17242896 14.33704493 4.76965261 19.52734375 9.3671875 C27.90754568 18.65876418 31.5603798 28.7383446 31.1875 41.0625 C31.16719727 42.3609082 31.16719727 42.3609082 31.14648438 43.68554688 C31.1115933 45.79064174 31.05780665 47.89540974 31 50 C30.67 50 30.34 50 30 50 C29.95101563 48.92621094 29.90203125 47.85242188 29.8515625 46.74609375 C29.77646602 45.30987358 29.70092124 43.87367681 29.625 42.4375 C29.5940625 41.73302734 29.563125 41.02855469 29.53125 40.30273438 C29.21644257 34.60996672 28.04475976 29.55385719 25.875 24.25 C25 22 25 22 25 19 C24.34 19 23.68 19 23 19 C22.773125 18.360625 22.54625 17.72125 22.3125 17.0625 C21.14749104 14.72806339 21.14749104 14.72806339 18.375 14.25 C17.59125 14.1675 16.8075 14.085 16 14 C16.66 13.67 17.32 13.34 18 13 C18 12.01 18 11.02 18 10 C17.484375 9.7525 16.96875 9.505 16.4375 9.25 C14 8 14 8 10.8125 6 C6.76384024 3.64121562 2.58026172 2.78934216 -2 2 C-1.34 1.34 -0.68 0.68 0 0 Z M15 15 C15.66 15 16.32 15 17 15 C16.67 15.66 16.34 16.32 16 17 C15.67 16.34 15.34 15.68 15 15 Z " fill="#0E70B8" transform="translate(394,78)"/>
<path d="M0 0 C0.33 0 0.66 0 1 0 C1.11214844 0.92619141 1.11214844 0.92619141 1.2265625 1.87109375 C2.39768055 9.4144718 5.09604546 15.51170659 10.87109375 20.671875 C16.01507939 23.88096696 22.78147274 24.51509843 28.6875 23.5 C35.24373174 21.68732551 40.13582355 17.47622552 44 12 C43.51077907 16.24234863 42.46375972 17.98261025 39.1875 20.6875 C38.50042969 21.26886719 37.81335938 21.85023438 37.10546875 22.44921875 C30.81753209 27.08059325 24.61711705 26.5571377 17 26 C11.95127342 24.88387392 7.34323994 21.94059117 4 18 C0 10.85448916 0 10.85448916 0 7 C-0.66 6.67 -1.32 6.34 -2 6 C-1.34 4.02 -0.68 2.04 0 0 Z " fill="#1E77B5" transform="translate(548,125)"/>
<path d="M0 0 C1.47783987 0.02013317 2.9557068 0.03837168 4.43359375 0.0546875 C7.99797344 0.09805785 11.56130293 0.16669113 15.125 0.25 C15.125 0.91 15.125 1.57 15.125 2.25 C14.38040527 2.23428955 13.63581055 2.2185791 12.86865234 2.20239258 C-8.99533129 1.80176136 -28.19777195 2.68087705 -46.875 15.25 C-47.535 15.25 -48.195 15.25 -48.875 15.25 C-48.8125 13.4375 -48.8125 13.4375 -47.875 11.25 C-44.3789097 9.43721244 -41.83518245 8.25 -37.875 8.25 C-37.545 7.26 -37.215 6.27 -36.875 5.25 C-36.01535645 5.1272168 -35.15571289 5.00443359 -34.27001953 4.87792969 C-30.88542147 4.25192751 -27.81871352 3.28576441 -24.5546875 2.203125 C-16.29783916 -0.19942019 -8.53741052 -0.20581431 0 0 Z " fill="#1D76B2" transform="translate(124.875,30.75)"/>
<path d="M0 0 C0.99 0.33 1.98 0.66 3 1 C2.113125 1.928125 1.22625 2.85625 0.3125 3.8125 C-8.82533575 14.65692919 -10.6521454 28.32025654 -9.6875 42.0625 C-9.48046672 44.04410422 -9.2539179 46.02385634 -9 48 C-8.85304688 49.16789062 -8.85304688 49.16789062 -8.703125 50.359375 C-8.4922898 51.90963383 -8.25138179 53.45579758 -8 55 C-13.27665985 49.72334015 -12.91834951 39.03010676 -13 32 C-12.17557337 19.95421094 -7.84462277 9.16553864 0 0 Z " fill="#1B73B3" transform="translate(353,89)"/>
<path d="M0 0 C0.66 0 1.32 0 2 0 C1.83628906 0.67635498 1.67257813 1.35270996 1.50390625 2.04956055 C0.91623189 5.49047367 0.90544402 8.71582336 0.9375 12.20703125 C0.94128662 12.89125656 0.94507324 13.57548187 0.94897461 14.28044128 C0.96519584 17.18679363 0.99325244 20.09300106 1.02050781 22.99926758 C1.03876278 25.13101531 1.05075158 27.26273922 1.0625 29.39453125 C1.07410156 30.66143799 1.08570313 31.92834473 1.09765625 33.23364258 C0.99388374 37.2358889 0.55757829 41.03850505 0 45 C-0.33 45 -0.66 45 -1 45 C-1.91136993 35.98907886 -2.18288544 27.05376279 -2.1875 18 C-2.19974609 16.70449219 -2.21199219 15.40898438 -2.22460938 14.07421875 C-2.22654297 12.83285156 -2.22847656 11.59148438 -2.23046875 10.3125 C-2.23663208 8.63607422 -2.23663208 8.63607422 -2.24291992 6.92578125 C-2.00553832 4.06670478 -1.48545668 2.41970848 0 0 Z " fill="#2E88C8" transform="translate(249,43)"/>
<path d="M0 0 C0.93423645 3.01031744 1.04449911 3.86650268 0 7 C-0.50016154 16.09909256 -0.75510568 24.53727402 3 33 C3.66666667 35 4.33333333 37 5 39 C5.66 39 6.32 39 7 39 C9.625 41.375 9.625 41.375 12 44 C12 44.66 12 45.32 12 46 C6.18289842 43.42312605 2.49018792 38.96734212 -0.33984375 33.33203125 C-4.50171852 22.35712305 -4.55336688 10.81424635 0 0 Z " fill="#1A73B0" transform="translate(76,100)"/>
<path d="M0 0 C1.17289776 3.51869327 0.73196652 4.45496012 -0.4375 7.875 C-1.643055 11.41057386 -2.16764716 14.25811539 -2 18 C-2.33 18 -2.66 18 -3 18 C-3.05444001 21.00024947 -3.0938836 23.99949039 -3.125 27 C-3.14175781 27.83917969 -3.15851562 28.67835937 -3.17578125 29.54296875 C-3.2184138 35.04256786 -2.70532225 39.75285461 -1 45 C-0.34 45.33 0.32 45.66 1 46 C0.34 46.99 -0.32 47.98 -1 49 C-1.65134925 47.43979133 -2.29582964 45.87671421 -2.9375 44.3125 C-3.29714844 43.44238281 -3.65679688 42.57226562 -4.02734375 41.67578125 C-8.60010427 29.09609868 -6.84128692 14.25165339 -1.3125 2.375 C-0.6628125 1.199375 -0.6628125 1.199375 0 0 Z " fill="#1773B4" transform="translate(690,98)"/>
<path d="M0 0 C0.66 0 1.32 0 2 0 C1.81824219 0.55945313 1.63648438 1.11890625 1.44921875 1.6953125 C-1.76643898 11.95243612 -4.55928846 22.18708975 -4 33 C-3.34 33.33 -2.68 33.66 -2 34 C-2.33 36.31 -2.66 38.62 -3 41 C-4.32 41 -5.64 41 -7 41 C-7.98707459 27.21751404 -6.26653903 12.53307807 0 0 Z " fill="#1576B8" transform="translate(10,69)"/>
<path d="M0 0 C0.66 0.66 1.32 1.32 2 2 C0.515 4.475 0.515 4.475 -1 7 C-0.26511353 7.93066284 -0.26511353 7.93066284 0.48461914 8.88012695 C2.68798367 11.68266813 4.87534411 14.49729431 7.0625 17.3125 C7.83400391 18.28896484 8.60550781 19.26542969 9.40039062 20.27148438 C10.12548828 21.20927734 10.85058594 22.14707031 11.59765625 23.11328125 C12.27320557 23.97735596 12.94875488 24.84143066 13.64477539 25.73168945 C14.09199951 26.48023193 14.53922363 27.22877441 15 28 C14.67 28.99 14.34 29.98 14 31 C13.67 30.34 13.34 29.68 13 29 C12.01 28.67 11.02 28.34 10 28 C9.67 28.66 9.34 29.32 9 30 C5.92307692 25.56923077 5.92307692 25.56923077 6.3125 22.6875 C6.539375 22.130625 6.76625 21.57375 7 21 C6.01 20.67 5.02 20.34 4 20 C4 18.68 4 17.36 4 16 C3.34 16 2.68 16 2 16 C1.731875 15.401875 1.46375 14.80375 1.1875 14.1875 C0.13819956 11.95707307 0.13819956 11.95707307 -1.625 10.5625 C-3 9 -3 9 -3.1875 6.3125 C-3.125625 5.549375 -3.06375 4.78625 -3 4 C-2.34 4 -1.68 4 -1 4 C-0.67 2.68 -0.34 1.36 0 0 Z " fill="#127CC4" transform="translate(298,97)"/>
<path d="M0 0 C0.33 0.66 0.66 1.32 1 2 C0.59007812 2.60328125 0.18015625 3.2065625 -0.2421875 3.828125 C-0.78101563 4.62734375 -1.31984375 5.4265625 -1.875 6.25 C-2.40867187 7.03890625 -2.94234375 7.8278125 -3.4921875 8.640625 C-5.01007603 10.91611796 -5.01007603 10.91611796 -6.046875 13.1484375 C-7.4806149 15.93365354 -9.79344068 17.79344068 -12 20 C-12.721875 21.093125 -13.44375 22.18625 -14.1875 23.3125 C-14.785625 24.199375 -15.38375 25.08625 -16 26 C-16.66 26 -17.32 26 -18 26 C-19.46381429 28.61395408 -20.13204741 30.63822915 -20.75 33.625 C-22 37 -22 37 -25.125 38.4375 C-26.07375 38.623125 -27.0225 38.80875 -28 39 C-26.51903168 35.80345451 -24.71175354 33.08516726 -22.625 30.25 C-21.91859375 29.28964844 -21.2121875 28.32929687 -20.484375 27.33984375 C-16.1761203 21.53714109 -11.83671608 15.75774133 -7.49121094 9.98291016 C-4.99067735 6.65787187 -2.49541882 3.32887769 0 0 Z " fill="#1B74B4" transform="translate(306,53)"/>
<path d="M0 0 C0.66 0.33 1.32 0.66 2 1 C1.21654285 2.17219543 0.42297164 3.33763668 -0.375 4.5 C-0.81585938 5.1496875 -1.25671875 5.799375 -1.7109375 6.46875 C-2.13632812 6.9740625 -2.56171875 7.479375 -3 8 C-3.66 8 -4.32 8 -5 8 C-5 8.66 -5 9.32 -5 10 C-5.66 10 -6.32 10 -7 10 C-7 10.66 -7 11.32 -7 12 C-8 13 -9 14 -10 15 C-10.33 15.99 -10.66 16.98 -11 18 C-11.99 18.33 -12.98 18.66 -14 19 C-15.23950042 21.09138456 -15.23950042 21.09138456 -16.1875 23.5625 C-16.53167969 24.38878906 -16.87585937 25.21507813 -17.23046875 26.06640625 C-17.48441406 26.70449219 -17.73835938 27.34257813 -18 28 C-18.66 28 -19.32 28 -20 28 C-20.12375 28.5775 -20.2475 29.155 -20.375 29.75 C-21.00648824 32.02335767 -21.88858191 33.9253529 -23 36 C-23.66 36 -24.32 36 -25 36 C-20.86214702 22.08932844 -10.35755366 9.82639706 0 0 Z " fill="#1975B8" transform="translate(37,30)"/>
<path d="M0 0 C0 0.66 0 1.32 0 2 C-1.12148437 2.16435547 -1.12148437 2.16435547 -2.265625 2.33203125 C-3.25046875 2.49058594 -4.2353125 2.64914063 -5.25 2.8125 C-6.22453125 2.96332031 -7.1990625 3.11414063 -8.203125 3.26953125 C-11.14716465 4.03843546 -12.68580128 5.07916397 -15 7 C-17.53502691 7.84500897 -19.29160911 8 -22 8 C-24.10820797 8.3185177 -24.10820797 8.3185177 -26 9 C-26.33 9.66 -26.66 10.32 -27 11 C-28.65614657 11.38218767 -30.32457024 11.71395102 -32 12 C-32.99 12.495 -32.99 12.495 -34 13 C-32.34592114 9.08887758 -30.42829001 7.8066298 -26.5546875 6.01171875 C-17.99623172 2.62236088 -9.2574158 -0.21528874 0 0 Z " fill="#197DC6" transform="translate(94,4)"/>
<path d="M0 0 C0.66 0 1.32 0 2 0 C2.0578304 4.45827926 2.09353855 8.9164628 2.125 13.375 C2.14175781 14.64601563 2.15851563 15.91703125 2.17578125 17.2265625 C2.18222656 18.43828125 2.18867188 19.65 2.1953125 20.8984375 C2.20578613 22.01911621 2.21625977 23.13979492 2.22705078 24.29443359 C2 27 2 27 0 29 C-1.12330307 24.11211368 -1.56108656 19.16820681 -2.0625 14.1875 C-2.15337891 13.30384766 -2.24425781 12.42019531 -2.33789062 11.50976562 C-2.56072602 9.34005254 -2.78136298 7.17013949 -3 5 C-2.34 5 -1.68 5 -1 5 C-0.67 3.35 -0.34 1.7 0 0 Z " fill="#3077B9" transform="translate(206,91)"/>
<path d="M0 0 C4 4.625 4 4.625 4 8 C4.66 8 5.32 8 6 8 C6.27972656 8.56847656 6.55945313 9.13695312 6.84765625 9.72265625 C9.83586924 15.47808898 13.2216473 19.65192551 18 24 C19.36794747 25.29779632 20.71889593 26.6164076 22 28 C22 28.66 22 29.32 22 30 C22.61875 30.309375 23.2375 30.61875 23.875 30.9375 C25.25 31.625 26.625 32.3125 28 33 C28 33.66 28 34.32 28 35 C29.485 35.495 29.485 35.495 31 36 C29.515 36.495 29.515 36.495 28 37 C17.66470841 27.76781835 9.28791768 18.9029579 2 7 C1.34 6.01 0.68 5.02 0 4 C0 2.68 0 1.36 0 0 Z " fill="#1673B0" transform="translate(13,152)"/>
<path d="M0 0 C1.32 0 2.64 0 4 0 C4 0.66 4 1.32 4 2 C4.763125 1.79375 5.52625 1.5875 6.3125 1.375 C9 1 9 1 12 3 C12 3.66 12 4.32 12 5 C20.25 5 28.5 5 37 5 C32.45338374 7.27330813 28.98313524 7.64284696 24 8 C22.2984375 8.12375 22.2984375 8.12375 20.5625 8.25 C13.66657462 7.76607541 6.95557286 5.51226092 1 2 C0.67 1.34 0.34 0.68 0 0 Z " fill="#1B7EC4" transform="translate(544,162)"/>
<path d="M0 0 C8.19650095 1.5811432 14.05386905 8.73044482 19 15 C21 18 21 18 21 21 C18.69 20.67 16.38 20.34 14 20 C14.33 19.34 14.66 18.68 15 18 C14.01 17.01 13.02 16.02 12 15 C12.66 14.67 13.32 14.34 14 14 C10.8112297 7.79961331 5.88497034 4.46174726 0 1 C0 0.67 0 0.34 0 0 Z " fill="#1786CE" transform="translate(843,81)"/>
<path d="M0 0 C0 0.33 0 0.66 0 1 C-0.77601563 0.9278125 -1.55203125 0.855625 -2.3515625 0.78125 C-17.46334532 -1.00471873 -17.46334532 -1.00471873 -32 2 C-35.3125 2.125 -35.3125 2.125 -38 2 C-29.78667698 -7.54733408 -10.31414677 -3.1221201 0 0 Z " fill="#1F77B9" transform="translate(144,70)"/>
<path d="M0 0 C0.33 0 0.66 0 1 0 C0.62539931 10.11421872 -4.69695111 17.43204012 -11.9140625 24.234375 C-15.00566072 26.85123342 -18.19049553 29.5354216 -22 31 C-24.234375 30.62109375 -24.234375 30.62109375 -26 30 C-25.16855469 29.54109375 -24.33710937 29.0821875 -23.48046875 28.609375 C-22.39378906 27.99578125 -21.30710937 27.3821875 -20.1875 26.75 C-19.10855469 26.14671875 -18.02960937 25.5434375 -16.91796875 24.921875 C-14.15617884 23.10286478 -12.87660247 21.63738725 -11 19 C-10.01 18.67 -9.02 18.34 -8 18 C-8 17.34 -8 16.68 -8 16 C-7.34 16 -6.68 16 -6 16 C-5.83177734 15.20335937 -5.83177734 15.20335937 -5.66015625 14.390625 C-4.83141323 11.38949642 -3.65240018 8.61591837 -2.4375 5.75 C-1.98246094 4.67234375 -1.52742187 3.5946875 -1.05859375 2.484375 C-0.70925781 1.66453125 -0.35992188 0.8446875 0 0 Z " fill="#1673B4" transform="translate(865,135)"/>
<path d="M0 0 C0.66 0 1.32 0 2 0 C1.89300781 0.87140625 1.78601563 1.7428125 1.67578125 2.640625 C0.62316153 13.09891128 1.99840999 21.33677172 6 31 C5.01 31.33 4.02 31.66 3 32 C-1.68086727 21.17957658 -3.78226191 11.34678573 0 0 Z " fill="#2782BE" transform="translate(706,111)"/>
<path d="M0 0 C0.66 0 1.32 0 2 0 C1.97679687 0.95261719 1.95359375 1.90523438 1.9296875 2.88671875 C1.91164063 4.14097656 1.89359375 5.39523438 1.875 6.6875 C1.85179687 7.92886719 1.82859375 9.17023438 1.8046875 10.44921875 C1.99506469 13.910276 2.57790083 15.89318404 4 19 C4.70839169 21.15992637 5.39489781 23.32711988 6.0625 25.5 C6.40410156 26.6034375 6.74570313 27.706875 7.09765625 28.84375 C7.87324015 31.55661488 8.49792643 34.22565535 9 37 C8.34 37 7.68 37 7 37 C6.20640264 34.6464689 5.41508217 32.29221117 4.625 29.9375 C4.40328125 29.28072266 4.1815625 28.62394531 3.953125 27.94726562 C3.29029432 25.96852111 2.6437269 23.98503141 2 22 C1.6184375 20.845 1.236875 19.69 0.84375 18.5 C-0.10391189 14.56895809 -0.19646591 11.1003242 -0.125 7.0625 C-0.11597656 6.37865234 -0.10695312 5.69480469 -0.09765625 4.99023438 C-0.07438958 3.32666713 -0.03853167 1.66328369 0 0 Z " fill="#1F77B6" transform="translate(3,112)"/>
<path d="M0 0 C0.66 0.33 1.32 0.66 2 1 C2 1.99 2 2.98 2 4 C1.34 4 0.68 4 0 4 C1.9254644 6.2236068 1.9254644 6.2236068 5 7 C4.814375 7.845625 4.62875 8.69125 4.4375 9.5625 C3.83453601 13.05578638 3.83453601 13.05578638 4.5625 16.75 C4.706875 17.8225 4.85125 18.895 5 20 C4.34 20.66 3.68 21.32 3 22 C0.06427277 15.58236373 -2.41427803 9.18081919 -2 2 C-1.34 1.34 -0.68 0.68 0 0 Z " fill="#0485D3" transform="translate(200,70)"/>
<path d="M0 0 C0 0.33 0 0.66 0 1 C-0.65226562 1.17015625 -1.30453125 1.3403125 -1.9765625 1.515625 C-11.35548192 4.11626932 -17.12285563 8.25709551 -23 16 C-25.06511878 19.84863045 -25.49192917 23.6813979 -26 28 C-26.33 28 -26.66 28 -27 28 C-27.2319591 21.38916571 -27.27447451 15.6535536 -22.75 10.375 C-20.74498131 8.64339295 -18.72815383 6.93848426 -16.6875 5.25 C-15.800625 4.5075 -14.91375 3.765 -14 3 C-14 2.67 -14 2.34 -14 2 C-9.07262981 0.02905192 -5.21979128 -0.1799928 0 0 Z " fill="#1D78B9" transform="translate(118,95)"/>
<path d="M0 0 C1.27875 0.165 2.5575 0.33 3.875 0.5 C8.9284158 1.07041736 13.92062649 1.09543708 19 1 C19 1.66 19 2.32 19 3 C19.65226562 2.855625 20.30453125 2.71125 20.9765625 2.5625 C25.72620177 1.55372706 30.11409188 0.74284694 35 1 C28.82051933 5.11965378 19.18811503 5.60101774 11.90234375 4.52734375 C2.6163737 2.6163737 2.6163737 2.6163737 0 0 Z " fill="#167BC0" transform="translate(365,165)"/>
<path d="M0 0 C2.43413661 1.21362052 4.79663264 2.48323327 7.1328125 3.875 C7.1328125 4.535 7.1328125 5.195 7.1328125 5.875 C7.7928125 5.875 8.4528125 5.875 9.1328125 5.875 C10.1228125 7.36 10.1228125 7.36 11.1328125 8.875 C10.8028125 9.865 10.4728125 10.855 10.1328125 11.875 C9.1428125 10.51375 9.1428125 10.51375 8.1328125 9.125 C4.4431749 4.76357964 0.30036863 2.31072256 -5.39453125 1.52734375 C-10.71772143 1.34323341 -14.20326123 2.14489682 -18.8671875 4.875 C-19.8571875 4.875 -20.8471875 4.875 -21.8671875 4.875 C-16.19645646 -1.74085288 -7.9074163 -3.10263746 0 0 Z " fill="#1472B2" transform="translate(735.8671875,96.125)"/>
<path d="M0 0 C6.57142857 4 6.57142857 4 8 8 C8.66 8 9.32 8 10 8 C14.58403194 13.40825443 19.16605181 20.06875465 21 27 C20.59375 29.2578125 20.59375 29.2578125 20 31 C19.56429687 30.0821875 19.12859375 29.164375 18.6796875 28.21875 C15.60934788 21.8579561 12.6163938 15.91786201 8.06640625 10.453125 C7 9 7 9 7 7 C5.68 7 4.36 7 3 7 C0 2.92857143 0 2.92857143 0 0 Z " fill="#1A77B8" transform="translate(160,79)"/>
<path d="M0 0 C3.63 0 7.26 0 11 0 C11 6.6 11 13.2 11 20 C7.04 20 3.08 20 -1 20 C-1 19.34 -1 18.68 -1 18 C2.3 18 5.6 18 9 18 C9 12.39 9 6.78 9 1 C6.03 1 3.06 1 0 1 C0 0.67 0 0.34 0 0 Z " fill="#166AB0" transform="translate(672,78)"/>
<path d="M0 0 C0.66 0.66 1.32 1.32 2 2 C2.66 1.67 3.32 1.34 4 1 C3.67 2.65 3.34 4.3 3 6 C-10.86 6 -24.72 6 -39 6 C-39 5.67 -39 5.34 -39 5 C-33.76743778 4.83256712 -28.53472773 4.671989 -23.30175781 4.51782227 C-21.52077543 4.4643798 -19.73984869 4.40904871 -17.95898438 4.35180664 C-15.40246583 4.26995819 -12.84582555 4.1948547 -10.2890625 4.12109375 C-9.49005524 4.09405869 -8.69104797 4.06702362 -7.86782837 4.03916931 C-2.22774341 3.88612829 -2.22774341 3.88612829 0 5 C0 3.35 0 1.7 0 0 Z " fill="#0079C8" transform="translate(403,109)"/>
<path d="M0 0 C0.99 0.33 1.98 0.66 3 1 C3.33 1.99 3.66 2.98 4 4 C2.12890625 6.69921875 2.12890625 6.69921875 -0.4375 9.6875 C-1.28183594 10.68136719 -2.12617188 11.67523438 -2.99609375 12.69921875 C-3.98802734 13.83810547 -3.98802734 13.83810547 -5 15 C-6.5645047 10.3064859 -5.12603628 6.37018568 -3 2 C-2.01 1.34 -1.02 0.68 0 0 Z " fill="#138CD7" transform="translate(325,57)"/>
<path d="M0 0 C0.99 0.33 1.98 0.66 3 1 C0.68220933 4.80779895 -0.84255748 7.27967896 -5 9 C-5.33 9.66 -5.66 10.32 -6 11 C-11.26254237 13.42886571 -16.33744277 13.20143484 -22 13 C-22 12.34 -22 11.68 -22 11 C-21.20335937 10.90203125 -20.40671875 10.8040625 -19.5859375 10.703125 C-11.85331856 9.61190384 -6.88530946 8.34088464 -1.625 2.25 C-1.08875 1.5075 -0.5525 0.765 0 0 Z " fill="#1D7AB7" transform="translate(842,138)"/>
<path d="M0 0 C0.33 0 0.66 0 1 0 C1.09796875 0.6290625 1.1959375 1.258125 1.296875 1.90625 C2.22139197 7.19831264 3.49338859 11.6012571 6.09765625 16.30859375 C7 18 7 18 8 21 C10.29534258 22.13545562 10.29534258 22.13545562 13 23 C14.66666667 23.66666667 16.33333333 24.33333333 18 25 C18 25.33 18 25.66 18 26 C15.03 25.67 12.06 25.34 9 25 C8.731875 24.195625 8.46375 23.39125 8.1875 22.5625 C7.795625 21.716875 7.40375 20.87125 7 20 C6.01 19.67 5.02 19.34 4 19 C0.50776834 13.95432737 -1.49517741 8.25402295 -0.5625 2.125 C-0.376875 1.42375 -0.19125 0.7225 0 0 Z " fill="#257CBE" transform="translate(802,123)"/>
<path d="M0 0 C0.33 0.99 0.66 1.98 1 3 C0.01 4.485 0.01 4.485 -1 6 C-2.32 5.67 -3.64 5.34 -5 5 C-5.33 5.66 -5.66 6.32 -6 7 C-7.0725 7.4125 -8.145 7.825 -9.25 8.25 C-13.45730295 9.92424633 -15.35219978 12.38936334 -18 16 C-18.33 15.01 -18.66 14.02 -19 13 C-5.19444444 0 -5.19444444 0 0 0 Z " fill="#1C78B9" transform="translate(103,72)"/>
<path d="M0 0 C1.65 0.33 3.3 0.66 5 1 C2.90998298 6.57337872 0.24907662 11.73985807 -4 16 C-4.99 16 -5.98 16 -7 16 C-6.55527344 15.46890625 -6.11054688 14.9378125 -5.65234375 14.390625 C-5.08644531 13.68421875 -4.52054687 12.9778125 -3.9375 12.25 C-3.36902344 11.55390625 -2.80054688 10.8578125 -2.21484375 10.140625 C-0.7866704 8.09706763 -0.7866704 8.09706763 -1.19140625 5.859375 C-1.94904136 3.8066566 -1.94904136 3.8066566 -4 2 C-2.68 2 -1.36 2 0 2 C0 1.34 0 0.68 0 0 Z " fill="#1377C0" transform="translate(420,139)"/>
<path d="M0 0 C5.42273125 8.13409687 6.21507269 19.36312567 4.484375 28.81640625 C4.32453125 29.53699219 4.1646875 30.25757813 4 31 C3.67 31 3.34 31 3 31 C2.92652344 29.42412109 2.92652344 29.42412109 2.8515625 27.81640625 C2.45491189 18.77537417 2.45491189 18.77537417 0.9375 9.875 C0.09567094 6.39543987 -0.18228623 3.55458154 0 0 Z " fill="#287DBB" transform="translate(864,102)"/>
<path d="M0 0 C0.66 0 1.32 0 2 0 C3.22399452 6.64041122 3.11227753 13.20221697 3.0625 19.9375 C3.05798828 21.09830078 3.05347656 22.25910156 3.04882812 23.45507812 C3.03710647 26.30343934 3.0206976 29.15169222 3 32 C2.34 31.67 1.68 31.34 1 31 C0.83212195 26.5833785 0.66590635 22.16669597 0.5 17.75 C0.45230469 16.49574219 0.40460938 15.24148437 0.35546875 13.94921875 C0.31035156 12.74394531 0.26523437 11.53867188 0.21875 10.296875 C0.17685547 9.18666992 0.13496094 8.07646484 0.09179688 6.93261719 C0.01949095 4.6226736 0 2.31107497 0 0 Z " fill="#3898D6" transform="translate(457,106)"/>
<path d="M0 0 C5.0410107 1.44028877 6.90045007 3.97896225 10 8 C10.66 8.66 11.32 9.32 12 10 C12.70381157 11.98723268 13.3711811 13.98777953 14 16 C14.33 16.66 14.66 17.32 15 18 C15.13415472 20.6723621 15.04318541 23.32250488 15 26 C14.67 26 14.34 26 14 26 C13.79246094 25.16597656 13.58492187 24.33195312 13.37109375 23.47265625 C10.94660621 14.61668292 7.85007261 7.23338174 0 2 C0 1.34 0 0.68 0 0 Z " fill="#2479B7" transform="translate(138,99)"/>
<path d="M0 0 C0.89267578 0.00644531 1.78535156 0.01289062 2.70507812 0.01953125 C4.09823242 0.04466797 4.09823242 0.04466797 5.51953125 0.0703125 C6.45990234 0.07933594 7.40027344 0.08835938 8.36914062 0.09765625 C10.69036093 0.12122194 13.01106769 0.15412134 15.33203125 0.1953125 C15.33203125 0.8553125 15.33203125 1.5153125 15.33203125 2.1953125 C8.40203125 2.1953125 1.47203125 2.1953125 -5.66796875 2.1953125 C-5.33796875 4.5053125 -5.00796875 6.8153125 -4.66796875 9.1953125 C-5.32796875 10.1853125 -5.98796875 11.1753125 -6.66796875 12.1953125 C-7.44215618 8.80824248 -8.0434696 5.66869532 -7.66796875 2.1953125 C-4.46390413 0.05926942 -3.67196128 -0.04677658 0 0 Z " fill="#69AAD7" transform="translate(600.66796875,40.8046875)"/>
<path d="M0 0 C0.33 0 0.66 0 1 0 C1.07476562 0.556875 1.14953125 1.11375 1.2265625 1.6875 C2.56317138 9.44507312 5.97693123 14.37124455 11.875 19.5 C12.57625 19.995 13.2775 20.49 14 21 C9.5734351 20.50815946 8.0747754 19.0747754 5 16 C3.68 16 2.36 16 1 16 C-0.12862175 10.63904667 -0.09688221 5.44693314 0 0 Z " fill="#1C80C6" transform="translate(91,124)"/>
<path d="M0 0 C0.99 0.33 1.98 0.66 3 1 C3.99 1 4.98 1 6 1 C6.66 1.33 7.32 1.66 8 2 C8 2.66 8 3.32 8 4 C9.3303125 3.938125 9.3303125 3.938125 10.6875 3.875 C13.97277013 3.99897246 16.05449295 4.61387904 19 6 C19 6.66 19 7.32 19 8 C18.11957031 7.7834375 17.23914063 7.566875 16.33203125 7.34375 C15.17058594 7.0653125 14.00914062 6.786875 12.8125 6.5 C11.66394531 6.2215625 10.51539063 5.943125 9.33203125 5.65625 C6.11120224 4.91042535 6.11120224 4.91042535 3.21875 5 C0.30240312 5 -0.86748443 3.8955694 -3 2 C-2.01 1.34 -1.02 0.68 0 0 Z " fill="#157FC3" transform="translate(118,91)"/>
<path d="M0 0 C0.98484375 0.00902344 1.9696875 0.01804687 2.984375 0.02734375 C4.10585938 0.04474609 4.10585938 0.04474609 5.25 0.0625 C1.76974686 2.07465628 -1.63336244 2.74652508 -5.5625 3.5 C-10.66324719 4.54248848 -15.10179851 5.73839926 -19.75 8.0625 C-18.75 5.0625 -18.75 5.0625 -16.82421875 3.9296875 C-16.03660156 3.60226563 -15.24898438 3.27484375 -14.4375 2.9375 C-13.65761719 2.60492188 -12.87773437 2.27234375 -12.07421875 1.9296875 C-7.89903447 0.37188765 -4.47310157 -0.05325121 0 0 Z " fill="#1073B9" transform="translate(380.75,76.9375)"/>
<path d="M0 0 C0.66 0 1.32 0 2 0 C0.93047276 7.04629714 -2.88463355 13.56056233 -8.375 18.125 C-9.24125 18.74375 -10.1075 19.3625 -11 20 C-10.41661834 16.75977176 -9.47106152 15.1538732 -7.1875 12.8125 C-3.71396909 8.96232116 -1.85132975 4.80256718 0 0 Z " fill="#1772B5" transform="translate(767,139)"/>
<path d="M0 0 C5.87159189 4.0541944 9.44299767 9.32393555 12 16 C11.66015625 18.33984375 11.66015625 18.33984375 11 20 C10.5875 18.88625 10.175 17.7725 9.75 16.625 C8.57850777 13.65539883 8.57850777 13.65539883 5.9375 12 C4 11 4 11 2.875 7.625 C2.441875 5.830625 2.441875 5.830625 2 4 C1.37530495 2.64649406 0.7283669 1.30065517 0 0 Z " fill="#1D79BD" transform="translate(757,88)"/>
<path d="M0 0 C3.47480357 3.39456832 6.70876573 6.88816571 9.8125 10.625 C10.60269531 11.56601563 11.39289063 12.50703125 12.20703125 13.4765625 C14 16 14 16 14 19 C11 18 11 18 9.9375 16 C9.628125 15.34 9.31875 14.68 9 14 C8.34 13.67 7.68 13.34 7 13 C7 12.01 7 11.02 7 10 C6.34 10 5.68 10 5 10 C3.7109375 8.3203125 3.7109375 8.3203125 2.375 6.125 C1.92898438 5.40570313 1.48296875 4.68640625 1.0234375 3.9453125 C0 2 0 2 0 0 Z " fill="#2B7EBE" transform="translate(330,149)"/>
<path d="M0 0 C0.56847656 0.0928125 1.13695312 0.185625 1.72265625 0.28125 C1.72265625 0.61125 1.72265625 0.94125 1.72265625 1.28125 C0.50578125 1.3225 -0.71109375 1.36375 -1.96484375 1.40625 C-5.34701548 1.82002633 -6.98875957 2.49446935 -9.21484375 5.09375 C-11.48145963 8.46867719 -11.48145963 8.46867719 -12.27734375 12.28125 C-11.94734375 13.27125 -11.61734375 14.26125 -11.27734375 15.28125 C-12.59734375 15.28125 -13.91734375 15.28125 -15.27734375 15.28125 C-15.15539132 9.42753344 -13.37887227 6.11130364 -9.3984375 1.81640625 C-6.26548298 -0.45109122 -3.75447338 -0.35100252 0 0 Z " fill="#4997CB" transform="translate(321.27734375,42.71875)"/>
<path d="M0 0 C0 3.53750029 -0.46774398 3.80825894 -2.8125 6.25 C-5.88476339 9.66201958 -7.35917149 12.73384587 -9 17 C-9.66 17.99 -10.32 18.98 -11 20 C-11.66 20 -12.32 20 -13 20 C-10.95450277 12.0225608 -6.0097891 5.47951359 0 0 Z " fill="#186CB0" transform="translate(796,86)"/>
<path d="M0 0 C3.71228389 3.59979044 7.10516412 7.38347519 10.44921875 11.328125 C11.91350467 13.10326363 11.91350467 13.10326363 14 14 C14 14.66 14 15.32 14 16 C14.99 16 15.98 16 17 16 C17 16.66 17 17.32 17 18 C8.73400333 15.165944 4.39995045 9.27830421 0 2 C0 1.34 0 0.68 0 0 Z " fill="#297DB7" transform="translate(346,146)"/>
<path d="M0 0 C0.33 0.66 0.66 1.32 1 2 C1.99 2.33 2.98 2.66 4 3 C4.12375 3.886875 4.2475 4.77375 4.375 5.6875 C4.85766991 8.92046166 4.85766991 8.92046166 6.0625 11.4375 C7.25853642 14.7066662 7.13537883 17.54783982 7 21 C4.83662639 17.75493959 3.69128328 14.73038879 2.375 11.0625 C1.92898437 9.83660156 1.48296875 8.61070313 1.0234375 7.34765625 C0 4 0 4 0 0 Z " fill="#1976B8" transform="translate(196,75)"/>
<path d="M0 0 C4.95642237 1.83571199 7.8214322 5.86735351 10.3125 10.375 C11.26300238 14.00419092 11.12703888 17.25235316 11 21 C10.67 21 10.34 21 10 21 C9.773125 19.865625 9.54625 18.73125 9.3125 17.5625 C7.79762818 11.4921922 5.28777695 5.52518464 0 2 C0 1.34 0 0.68 0 0 Z " fill="#176EB3" transform="translate(503,83)"/>
<path d="M0 0 C7.25852128 0.35121877 12.83201295 2.07157968 19 6 C19.33 6.66 19.66 7.32 20 8 C16.52813667 7.55201763 13.7061398 6.46561585 10.5625 5 C7.0405926 3.37450427 3.89234292 2.39921466 0 2 C0 1.34 0 0.68 0 0 Z " fill="#257CB7" transform="translate(573,77)"/>
<path d="M0 0 C0.33 0 0.66 0 1 0 C1.24924637 5.23417369 0.34265453 9.31469094 -2 14 C-2.99 14.33 -3.98 14.66 -5 15 C-5.33 15.66 -5.66 16.32 -6 17 C-7.32 16.67 -8.64 16.34 -10 16 C-9.2575 15.319375 -8.515 14.63875 -7.75 13.9375 C-3.92898567 10.11648567 -0.86760501 5.42253128 0 0 Z " fill="#2A81BE" transform="translate(749,129)"/>
<path d="M0 0 C1.875 0.125 1.875 0.125 4 1 C5.25 4.0625 5.25 4.0625 6 7 C7.65 6.67 9.3 6.34 11 6 C11.33 6.99 11.66 7.98 12 9 C10.68 9.33 9.36 9.66 8 10 C8 11.65 8 13.3 8 15 C7.34 15 6.68 15 6 15 C5.9175 13.96875 5.835 12.9375 5.75 11.875 C4.93560277 7.667281 3.53296919 5.40367735 1 2 C0.67 1.34 0.34 0.68 0 0 Z " fill="#258ED1" transform="translate(395,99)"/>
<path d="M0 0 C0.66 0.33 1.32 0.66 2 1 C2 2.32 2 3.64 2 5 C3.65 5.33 5.3 5.66 7 6 C3.91111478 8.05925681 3.29064073 8.2390374 -0.1875 8.125 C-2.0746875 8.063125 -2.0746875 8.063125 -4 8 C-4.33 6.35 -4.66 4.7 -5 3 C-4.34 3 -3.68 3 -3 3 C-3 3.99 -3 4.98 -3 6 C-2.01 4.02 -1.02 2.04 0 0 Z " fill="#1C80C3" transform="translate(600,160)"/>
<path d="M0 0 C0.66 0.33 1.32 0.66 2 1 C2.02712153 2.916588 2.04645097 4.8332873 2.0625 6.75 C2.07410156 7.81734375 2.08570313 8.8846875 2.09765625 9.984375 C2.01510087 12.53368501 1.74617558 14.57933591 1 17 C0.34 17 -0.32 17 -1 17 C-1.02691685 14.54159395 -1.04679802 12.08348118 -1.0625 9.625 C-1.07087891 8.92632812 -1.07925781 8.22765625 -1.08789062 7.5078125 C-1.11328125 2.2265625 -1.11328125 2.2265625 0 0 Z " fill="#1D89D0" transform="translate(458,143)"/>
<path d="M0 0 C-6.1213318 3.39920457 -13.14875704 3.14577113 -20 3 C-20 2.34 -20 1.68 -20 1 C-13.31184516 0.37577221 -6.71884955 -0.12920865 0 0 Z " fill="#4292CC" transform="translate(581,167)"/>
<path d="M0 0 C0 1.32 0 2.64 0 4 C2.64 4.66 5.28 5.32 8 6 C8 6.33 8 6.66 8 7 C1.741346 7.5326514 -2.45108785 5.81849506 -8 3 C-3.5 0 -3.5 0 0 0 Z " fill="#0F77BE" transform="translate(810,161)"/>
<path d="M0 0 C0.66 0 1.32 0 2 0 C6.98706764 5.43693199 11.00887112 11.81594316 15 18 C14.34 18.33 13.68 18.66 13 19 C10.8295255 16.02359031 8.66426538 13.04342685 6.5 10.0625 C5.87996094 9.21236328 5.25992187 8.36222656 4.62109375 7.48632812 C4.03457031 6.67744141 3.44804687 5.86855469 2.84375 5.03515625 C2.29912109 4.2862915 1.75449219 3.53742676 1.19335938 2.76586914 C0 1 0 1 0 0 Z " fill="#1F76B4" transform="translate(295,140)"/>
<path d="M0 0 C6.67890692 0.16290017 12.71727108 3.93997634 17.5625 8.3125 C18.036875 8.869375 18.51125 9.42625 19 10 C15.90198124 9.39133848 13.87947505 8.37606519 11.3125 6.5625 C7.06748378 3.79644423 2.96505753 2.77004364 -2 2 C-1.34 1.34 -0.68 0.68 0 0 Z " fill="#267BB9" transform="translate(394,78)"/>
<path d="M0 0 C-0.33 0.66 -0.66 1.32 -1 2 C-3.77170395 1.88613541 -6.54178046 1.75939222 -9.3125 1.625 C-10.09818359 1.5940625 -10.88386719 1.563125 -11.69335938 1.53125 C-12.45068359 1.49257812 -13.20800781 1.45390625 -13.98828125 1.4140625 C-14.68477783 1.3826416 -15.38127441 1.3512207 -16.09887695 1.31884766 C-18 1 -18 1 -21 -1 C-13.52256339 -1.84349132 -7.19701539 -2.39900513 0 0 Z " fill="#2B81BC" transform="translate(101,206)"/>
<path d="M0 0 C7.36361817 1.39400344 12.63205694 7.26707473 17 13 C16.67 13.66 16.34 14.32 16 15 C15.59910156 14.49210937 15.19820312 13.98421875 14.78515625 13.4609375 C10.87523706 8.72647753 6.95919586 5.33727025 1.72265625 2.12890625 C1.15417969 1.75636719 0.58570313 1.38382812 0 1 C0 0.67 0 0.34 0 0 Z " fill="#2375B0" transform="translate(843,81)"/>
<path d="M0 0 C4.66714289 1.83025211 8.18765077 3.6497537 12 7 C9.69 7.66 7.38 8.32 5 9 C4 6 4 6 4 4 C2.68 3.34 1.36 2.68 0 2 C0 1.34 0 0.68 0 0 Z " fill="#1D7FC1" transform="translate(155,15)"/>
<path d="M0 0 C2.97 0.33 5.94 0.66 9 1 C2.84965831 9.44646925 2.84965831 9.44646925 -1 13 C0.11550822 9.13862539 1.02473239 6.70478873 4 4 C4 3.34 4 2.68 4 2 C2.68 1.34 1.36 0.68 0 0 Z " fill="#337FB6" transform="translate(332,43)"/>
<path d="M0 0 C4.59808129 0.53894425 7.86784369 1.76571528 11.875 4.0625 C12.84179688 4.61035156 13.80859375 5.15820312 14.8046875 5.72265625 C15.89136719 6.35494141 15.89136719 6.35494141 17 7 C17 7.66 17 8.32 17 9 C13.10391502 7.51095825 9.40902982 5.75621287 5.6875 3.875 C4.61886719 3.33617187 3.55023438 2.79734375 2.44921875 2.2421875 C1.64097656 1.83226562 0.83273438 1.42234375 0 1 C0 0.67 0 0.34 0 0 Z " fill="#1D78BC" transform="translate(150,35)"/>
<path d="M0 0 C0 0.33 0 0.66 0 1 C-0.65226562 1.17015625 -1.30453125 1.3403125 -1.9765625 1.515625 C-8.01184143 3.16926439 -8.01184143 3.16926439 -13.4375 6.1875 C-16 8 -16 8 -19 8 C-13.60049202 0.69478332 -8.87784584 -0.30613262 0 0 Z " fill="#1673B2" transform="translate(118,95)"/>
<path d="M0 0 C4.29 0.66 8.58 1.32 13 2 C12.67 2.99 12.34 3.98 12 5 C10.02 5.33 8.04 5.66 6 6 C6 4.68 6 3.36 6 2 C3.03 1.505 3.03 1.505 0 1 C0 0.67 0 0.34 0 0 Z " fill="#398BC6" transform="translate(105,145)"/>
<path d="M0 0 C0.33 0.99 0.66 1.98 1 3 C0.01439389 4.34400833 -0.98758315 5.67607028 -2 7 C-2.71433121 9.64934822 -2.71433121 9.64934822 -3 12 C-4.98 12.66 -6.96 13.32 -9 14 C-7.45158425 10.65291949 -5.50894136 7.75332488 -3.375 4.75 C-2.74335938 3.85796875 -2.11171875 2.9659375 -1.4609375 2.046875 C-0.73777344 1.03367187 -0.73777344 1.03367187 0 0 Z " fill="#287EBE" transform="translate(287,78)"/>
<path d="M0 0 C0.66 0.33 1.32 0.66 2 1 C1.21654285 2.17219543 0.42297164 3.33763668 -0.375 4.5 C-0.81585938 5.1496875 -1.25671875 5.799375 -1.7109375 6.46875 C-2.13632812 6.9740625 -2.56171875 7.479375 -3 8 C-3.66 8 -4.32 8 -5 8 C-5 8.66 -5 9.32 -5 10 C-5.66 10 -6.32 10 -7 10 C-7.33 10.66 -7.66 11.32 -8 12 C-8 8 -8 8 -6.25 5.859375 C-5.5075 5.16328125 -4.765 4.4671875 -4 3.75 C-3.2575 3.04359375 -2.515 2.3371875 -1.75 1.609375 C-1.1725 1.07828125 -0.595 0.5471875 0 0 Z " fill="#2881BF" transform="translate(37,30)"/>
<path d="M0 0 C0 0.66 0 1.32 0 2 C-0.66 2.2475 -1.32 2.495 -2 2.75 C-5.76360907 4.31817045 -9.3711424 6.14505046 -13 8 C-13 7.01 -13 6.02 -13 5 C-11.39967863 4.15930585 -9.79458829 3.32768495 -8.1875 2.5 C-6.84751953 1.80390625 -6.84751953 1.80390625 -5.48046875 1.09375 C-3 0 -3 0 0 0 Z " fill="#2980BB" transform="translate(475,78)"/>
<path d="M0 0 C0.33 0.99 0.66 1.98 1 3 C0.01 4.485 0.01 4.485 -1 6 C-2.32 5.67 -3.64 5.34 -5 5 C-5.33 5.66 -5.66 6.32 -6 7 C-6.33 5.68 -6.66 4.36 -7 3 C-2.25 0 -2.25 0 0 0 Z " fill="#0C7EC0" transform="translate(103,72)"/>
<path d="M0 0 C0.66 0 1.32 0 2 0 C0.5140084 4.59306496 -1.85014682 7.43569245 -5 11 C-6.10807948 7.67576157 -5.76802174 6.32809422 -5 3 C-5 2.34 -5 1.68 -5 1 C-4.34 1 -3.68 1 -3 1 C-3 1.99 -3 2.98 -3 4 C-2.34 4 -1.68 4 -1 4 C-0.67 2.68 -0.34 1.36 0 0 Z " fill="#167BBB" transform="translate(325,61)"/>
<path d="M0 0 C-4.07156479 2.0357824 -6.51124928 3.12165065 -11.125 3.0625 C-12.03507813 3.05347656 -12.94515625 3.04445312 -13.8828125 3.03515625 C-14.58148437 3.02355469 -15.28015625 3.01195312 -16 3 C-16 2.34 -16 1.68 -16 1 C-10.62915894 0.31798844 -5.41499441 -0.11521265 0 0 Z " fill="#1178C0" transform="translate(836,148)"/>
<path d="M0 0 C0.69867188 0.08378906 1.39734375 0.16757813 2.1171875 0.25390625 C3.02726562 0.35574219 3.93734375 0.45757812 4.875 0.5625 C5.77992187 0.66691406 6.68484375 0.77132812 7.6171875 0.87890625 C10.01653057 1.19674852 10.01653057 1.19674852 12 0 C12.99 1.32 13.98 2.64 15 4 C9.158256 4.35050464 5.1468192 4.16727335 0 1 C0 0.67 0 0.34 0 0 Z " fill="#0A74BD" transform="translate(89,147)"/>
<path d="M0 0 C0.99 0.33 1.98 0.66 3 1 C3.66 0.67 4.32 0.34 5 0 C4.36610765 3.49844386 2.94822306 5.84086876 0.9375 8.75 C0.38964844 9.54921875 -0.15820312 10.3484375 -0.72265625 11.171875 C-1.14417969 11.77515625 -1.56570313 12.3784375 -2 13 C-2.58984375 11.0859375 -2.58984375 11.0859375 -3 9 C-2.525625 8.54625 -2.05125 8.0925 -1.5625 7.625 C0.34678731 5.9914698 0.34678731 5.9914698 0.1875 2.8125 C0.125625 1.884375 0.06375 0.95625 0 0 Z " fill="#237FBB" transform="translate(304,84)"/>
<path d="M0 0 C0.66 0 1.32 0 2 0 C2.33 0.99 2.66 1.98 3 3 C1.02 3.99 1.02 3.99 -1 5 C-0.67 5.66 -0.34 6.32 0 7 C-1.65 7.33 -3.3 7.66 -5 8 C-4.67 6.02 -4.34 4.04 -4 2 C-2.68 2 -1.36 2 0 2 C0 1.34 0 0.68 0 0 Z " fill="#1189CE" transform="translate(834,162)"/>
<path d="M0 0 C1.32 0.33 2.64 0.66 4 1 C-0.40528021 4.55811094 -4.24512263 7 -10 7 C-10 6.34 -10 5.68 -10 5 C-9.36191406 4.80664062 -8.72382812 4.61328125 -8.06640625 4.4140625 C-7.24011719 4.15367187 -6.41382813 3.89328125 -5.5625 3.625 C-4.32693359 3.24214844 -4.32693359 3.24214844 -3.06640625 2.8515625 C-0.82201984 2.19117773 -0.82201984 2.19117773 0 0 Z " fill="#257DBD" transform="translate(748,161)"/>
<path d="M0 0 C0.66 0.33 1.32 0.66 2 1 C-2.71159603 4.73678306 -6.01903338 5.11284843 -12 5 C-11.67 4.01 -11.34 3.02 -11 2 C-9.39125 2.061875 -9.39125 2.061875 -7.75 2.125 C-4.24398978 2.00813299 -2.93150123 1.62861179 0 0 Z " fill="#2A86C5" transform="translate(737,146)"/>
<path d="M0 0 C0.8125 1.6875 0.8125 1.6875 1 4 C-1.4375 6.75 -1.4375 6.75 -4 9 C-4.66 8.67 -5.32 8.34 -6 8 C-5.65120368 4.74456771 -4.97866739 3.98126893 -2.4375 1.75 C-1.633125 1.1725 -0.82875 0.595 0 0 Z " fill="#2286C7" transform="translate(360,83)"/>
<path d="M0 0 C2.3129482 2.3129482 2.49580975 3.47904875 3.125 6.625 C3.29257813 7.44226563 3.46015625 8.25953125 3.6328125 9.1015625 C3.81457031 10.04128906 3.81457031 10.04128906 4 11 C1 11 1 11 -1 10 C-1 9.34 -1 8.68 -1 8 C-0.34 8 0.32 8 1 8 C0.67 5.36 0.34 2.72 0 0 Z " fill="#2482C3" transform="translate(201,66)"/>
<path d="M0 0 C0.66 0 1.32 0 2 0 C1.34 4.95 0.68 9.9 0 15 C-2.46934085 11.29598872 -2.44928433 8.29412135 -2 4 C-1 1.5 -1 1.5 0 0 Z " fill="#3F87C3" transform="translate(249,43)"/>
<path d="M0 0 C0 0.66 0 1.32 0 2 C-4.96073422 3.32286246 -9.91111512 3.08893197 -15 3 C-9.94813947 0.37814833 -5.68917445 -0.13230638 0 0 Z " fill="#3487BF" transform="translate(94,4)"/>
<path d="M0 0 C1 3 1 3 -0.0625 5.625 C-2 8 -2 8 -5.1875 8.8125 C-6.115625 8.874375 -7.04375 8.93625 -8 9 C-5.50174717 5.78796065 -2.9297008 2.82506863 0 0 Z " fill="#3088C4" transform="translate(143,155)"/>
<path d="M0 0 C0.66 0.66 1.32 1.32 2 2 C0.515 4.475 0.515 4.475 -1 7 C-0.484375 7.598125 0.03125 8.19625 0.5625 8.8125 C1.036875 9.534375 1.51125 10.25625 2 11 C1.67 11.99 1.34 12.98 1 14 C-2.93846154 9.69230769 -2.93846154 9.69230769 -3.25 6.1875 C-3.1675 5.465625 -3.085 4.74375 -3 4 C-2.34 4 -1.68 4 -1 4 C-0.67 2.68 -0.34 1.36 0 0 Z " fill="#1577B8" transform="translate(298,97)"/>
<path d="M0 0 C-3 2 -3 2 -5 2 C-5.33 2.66 -5.66 3.32 -6 4 C-7.65614657 4.38218767 -9.32457024 4.71395102 -11 5 C-11.99 5.495 -11.99 5.495 -13 6 C-12.00155126 3.37907206 -11.44154671 2.22818739 -8.90625 0.91796875 C-8.1121875 0.67691406 -7.318125 0.43585937 -6.5 0.1875 C-5.7059375 -0.06644531 -4.911875 -0.32039062 -4.09375 -0.58203125 C-2 -1 -2 -1 0 0 Z " fill="#0F78C0" transform="translate(73,11)"/>
<path d="M0 0 C0.26218749 3.14624993 0.24754367 4.61837017 -1.5 7.3125 C-2.2425 8.1478125 -2.2425 8.1478125 -3 9 C-3.66 6.36 -4.32 3.72 -5 1 C-2 0 -2 0 0 0 Z " fill="#1B82C8" transform="translate(596,106)"/>
<path d="M0 0 C-1 2 -1 2 -3.1875 3.125 C-6.26769331 4.08328236 -8.79309948 4.14915816 -12 4 C-8.47224824 -0.05691453 -5.19281521 -0.14424487 0 0 Z " fill="#1375BF" transform="translate(118,68)"/>
<path d="M0 0 C0.99 0.495 0.99 0.495 2 1 C2 1.66 2 2.32 2 3 C2.66 3 3.32 3 4 3 C4 3.66 4 4.32 4 5 C4.804375 5.268125 5.60875 5.53625 6.4375 5.8125 C7.283125 6.204375 8.12875 6.59625 9 7 C9.33 7.99 9.66 8.98 10 10 C5.57299578 8.60865582 3.00586708 6.52115858 0 3 C0 2.01 0 1.02 0 0 Z " fill="#196CAE" transform="translate(791,152)"/>
<path d="M0 0 C1.32 0 2.64 0 4 0 C4 0.66 4 1.32 4 2 C6.97 2.495 6.97 2.495 10 3 C9.67 3.66 9.34 4.32 9 5 C5.65626525 4.44271087 2.96687001 3.64826111 0 2 C0 1.34 0 0.68 0 0 Z " fill="#217DBF" transform="translate(54,195)"/>
<path d="M0 0 C0.99 0.33 1.98 0.66 3 1 C3 2.65 3 4.3 3 6 C1.35 5.67 -0.3 5.34 -2 5 C-1.125 1.125 -1.125 1.125 0 0 Z " fill="#1B85C9" transform="translate(612,162)"/>
<path d="M0 0 C2.99324263 1.0975223 3.84610901 1.67682892 5.25 4.625 C5.4975 5.40875 5.745 6.1925 6 7 C5.01 6.67 4.02 6.34 3 6 C3 5.34 3 4.68 3 4 C2.34 4 1.68 4 1 4 C0.67 2.68 0.34 1.36 0 0 Z M-1 4 C-0.01 4.495 -0.01 4.495 1 5 C0.67 5.99 0.34 6.98 0 8 C-0.33 6.68 -0.66 5.36 -1 4 Z " fill="#167CBE" transform="translate(323,141)"/>
<path d="M0 0 C0.70125 0.7425 1.4025 1.485 2.125 2.25 C4.97718006 4.97817223 7.6763063 6.91302954 11 9 C9.3125 9.8125 9.3125 9.8125 7 10 C3.39713352 7.0833938 1.38833764 4.41743795 0 0 Z " fill="#2C82B5" transform="translate(94,135)"/>
<path d="M0 0 C3.35620271 1.38877354 5.07298728 2.91677965 7 6 C7 6.66 7 7.32 7 8 C5 8 5 8 3.5 6.5625 C3.005 6.046875 2.51 5.53125 2 5 C1.34 4.67 0.68 4.34 0 4 C0 2.68 0 1.36 0 0 Z " fill="#1D7CBF" transform="translate(184,39)"/>
<path d="M0 0 C0.33 0 0.66 0 1 0 C1.19573608 1.43640171 1.38127816 2.87419504 1.5625 4.3125 C1.66691406 5.11300781 1.77132813 5.91351563 1.87890625 6.73828125 C2 9 2 9 1 12 C0.34 11.67 -0.32 11.34 -1 11 C-1.02688151 9.35425434 -1.04634123 7.70838587 -1.0625 6.0625 C-1.07410156 5.14597656 -1.08570313 4.22945312 -1.09765625 3.28515625 C-1 1 -1 1 0 0 Z " fill="#5EA0D3" transform="translate(493,154)"/>
<path d="M0 0 C-1.423125 0.6496875 -1.423125 0.6496875 -2.875 1.3125 C-6.20041937 2.79302201 -6.20041937 2.79302201 -8 6 C-8 5.34 -8 4.68 -8 4 C-8.99 3.67 -9.98 3.34 -11 3 C-9.73581754 2.30034557 -8.46334598 1.61565237 -7.1875 0.9375 C-6.47980469 0.55464844 -5.77210937 0.17179688 -5.04296875 -0.22265625 C-3 -1 -3 -1 0 0 Z " fill="#1073BA" transform="translate(132,168)"/>
<path d="M0 0 C-0.28875 0.70125 -0.5775 1.4025 -0.875 2.125 C-2.02133588 5.05452503 -3.02625654 8.00921653 -4 11 C-4.33 11 -4.66 11 -5 11 C-4.8864371 9.35333797 -4.75882619 7.70763918 -4.625 6.0625 C-4.55539062 5.14597656 -4.48578125 4.22945313 -4.4140625 3.28515625 C-4.27742187 2.53105469 -4.14078125 1.77695313 -4 1 C-2 0 -2 0 0 0 Z " fill="#247DBD" transform="translate(808,105)"/>
<path d="M0 0 C0.66 0.33 1.32 0.66 2 1 C1.67 1.66 1.34 2.32 1 3 C0.34 3 -0.32 3 -1 3 C-1.33 4.65 -1.66 6.3 -2 8 C-3.32 8 -4.64 8 -6 8 C-4.768606 4.30581799 -2.79208646 2.64890254 0 0 Z " fill="#0A74BD" transform="translate(277,92)"/>
<path d="M0 0 C0 0.33 0 0.66 0 1 C-1.2375 1.28875 -2.475 1.5775 -3.75 1.875 C-6.72448742 2.61334794 -9.333856 3.44474933 -12 5 C-12 3.68 -12 2.36 -12 1 C-8.0186217 -0.3271261 -4.14954773 -0.06915913 0 0 Z " fill="#2981BA" transform="translate(384,95)"/>
<path d="M0 0 C0.99 0.495 0.99 0.495 2 1 C2.85056945 4.55692677 3.16909807 6.49270578 2 10 C1.34 10 0.68 10 0 10 C0 6.7 0 3.4 0 0 Z " fill="#0D70B4" transform="translate(493,144)"/>
<path d="M0 0 C2.32472205 2.85306797 3.7508258 5.54074837 5 9 C4.01 9.33 3.02 9.66 2 10 C0.68373308 6.38026598 0 3.90432869 0 0 Z " fill="#1071B7" transform="translate(707,133)"/>
<path d="M0 0 C4.55384615 -0.36923077 4.55384615 -0.36923077 6.8125 1.5 C7.204375 1.995 7.59625 2.49 8 3 C7 4 7 4 4.4375 4.0625 C3.2309375 4.0315625 3.2309375 4.0315625 2 4 C2 3.01 2 2.02 2 1 C1.34 0.67 0.68 0.34 0 0 Z " fill="#2183C3" transform="translate(496,80)"/>
<path d="M0 0 C1.77049689 -0.05410687 3.54146849 -0.09284119 5.3125 -0.125 C6.29863281 -0.14820312 7.28476562 -0.17140625 8.30078125 -0.1953125 C11 0 11 0 14 2 C12.0085944 2.38133299 10.00720923 2.71325582 8 3 C7.67 2.67 7.34 2.34 7 2 C4.67182036 1.63239269 2.3381615 1.29758419 0 1 C0 0.67 0 0.34 0 0 Z " fill="#3D95C8" transform="translate(821,76)"/>
<path d="M0 0 C-1.28519565 2.86697492 -2.57129254 4.97607712 -5 7 C-5.66 7 -6.32 7 -7 7 C-3.86206897 0 -3.86206897 0 0 0 Z " fill="#1F78BB" transform="translate(594,157)"/>
<path d="M0 0 C2 1 2 1 2.875 2.8125 C3 5 3 5 1.0625 7.25 C0.381875 7.8275 -0.29875 8.405 -1 9 C-2.60031344 5.79937313 -1.03173691 3.27728194 0 0 Z " fill="#1B84CF" transform="translate(865,130)"/>
<path d="M0 0 C0.99 0 1.98 0 3 0 C3 2.64 3 5.28 3 8 C2.34 8 1.68 8 1 8 C0.67 5.36 0.34 2.72 0 0 Z " fill="#2A87CA" transform="translate(247,120)"/>
<path d="M0 0 C2.29013653 3.4352048 2.17842973 4.985331 2 9 C1.01 9.495 1.01 9.495 0 10 C-1.125 2.25 -1.125 2.25 0 0 Z " fill="#2B88C0" transform="translate(40,115)"/>
<path d="M0 0 C0.66 0.33 1.32 0.66 2 1 C-0.97 4.96 -0.97 4.96 -4 9 C-4.33 8.01 -4.66 7.02 -5 6 C-3.59554165 3.7363436 -1.8032087 1.9791315 0 0 Z " fill="#3884BB" transform="translate(316,74)"/>
<path d="M0 0 C-5.75 4 -5.75 4 -8 4 C-7.6875 2.0625 -7.6875 2.0625 -7 0 C-3.86650268 -1.04449911 -3.01031744 -0.93423645 0 0 Z " fill="#2B83BE" transform="translate(84,42)"/>
<path d="M0 0 C2.31 0.66 4.62 1.32 7 2 C6.67 2.99 6.34 3.98 6 5 C4.68 4.67 3.36 4.34 2 4 C2.33 3.34 2.66 2.68 3 2 C2.01 2 1.02 2 0 2 C0 1.34 0 0.68 0 0 Z " fill="#1A7FC1" transform="translate(136,7)"/>
<path d="M0 0 C1.32 0 2.64 0 4 0 C4 0.66 4 1.32 4 2 C5.65 2.33 7.3 2.66 9 3 C9 3.66 9 4.32 9 5 C2.25 3.375 2.25 3.375 0 0 Z " fill="#2075B9" transform="translate(544,162)"/>
<path d="M0 0 C1.32 0 2.64 0 4 0 C4 1.65 4 3.3 4 5 C2.35 5 0.7 5 -1 5 C-1 4.34 -1 3.68 -1 3 C-0.01 3 0.98 3 2 3 C2 2.34 2 1.68 2 1 C1.34 0.67 0.68 0.34 0 0 Z " fill="#0B76C4" transform="translate(107,147)"/>
<path d="M0 0 C0.66 0.33 1.32 0.66 2 1 C2 3.31 2 5.62 2 8 C1.34 8 0.68 8 0 8 C-1.125 2.25 -1.125 2.25 0 0 Z " fill="#49A1D9" transform="translate(458,143)"/>
<path d="M0 0 C1.98 0.99 1.98 0.99 4 2 C4 4.97 4 7.94 4 11 C3.67 11 3.34 11 3 11 C2.01 7.37 1.02 3.74 0 0 Z " fill="#3987C1" transform="translate(843,109)"/>
<path d="M0 0 C0.99 0.33 1.98 0.66 3 1 C3.33 1.99 3.66 2.98 4 4 C2.35 4.33 0.7 4.66 -1 5 C-1.33 4.34 -1.66 3.68 -2 3 C-1.34 3 -0.68 3 0 3 C0 2.01 0 1.02 0 0 Z M-3 5 C-2.34 5 -1.68 5 -1 5 C-1.33 5.66 -1.66 6.32 -2 7 C-2.33 6.34 -2.66 5.68 -3 5 Z " fill="#0E7FC3" transform="translate(412,88)"/>
<path d="M0 0 C3 1.8125 3 1.8125 6 4 C6 4.99 6 5.98 6 7 C5.01 7 4.02 7 3 7 C0 2.77777778 0 2.77777778 0 0 Z " fill="#3D87BE" transform="translate(160,79)"/>
<path d="M0 0 C-0.33 0.99 -0.66 1.98 -1 3 C-3.97 3 -6.94 3 -10 3 C-6.88378718 -0.11621282 -4.21175599 -0.11383124 0 0 Z " fill="#227BC1" transform="translate(557,79)"/>
<path d="M0 0 C1.2077558 3.62326739 0.54311128 4.64146369 -1 8 C-1.99 8 -2.98 8 -4 8 C-4 7.34 -4 6.68 -4 6 C-3.34 6 -2.68 6 -2 6 C-1.7834375 5.071875 -1.7834375 5.071875 -1.5625 4.125 C-1 2 -1 2 0 0 Z " fill="#0D79BC" transform="translate(331,51)"/>
<path d="M0 0 C2.475 0.495 2.475 0.495 5 1 C5.33 1.99 5.66 2.98 6 4 C6.66 4 7.32 4 8 4 C8 4.66 8 5.32 8 6 C4.63408134 4.55746343 2.48952921 2.66735273 0 0 Z " fill="#3086C2" transform="translate(167,44)"/>
<path d="M0 0 C2.88575819 0.39803561 3.82189513 0.79009069 5.75 3.0625 C6.1625 3.701875 6.575 4.34125 7 5 C4.03 4.505 4.03 4.505 1 4 C0.67 2.68 0.34 1.36 0 0 Z " fill="#1E7EBD" transform="translate(177,32)"/>
<path d="M0 0 C-4.5 3 -4.5 3 -9 6 C-8.8125 4.1875 -8.8125 4.1875 -8 2 C-3.744 -1.248 -3.744 -1.248 0 0 Z " fill="#1970AC" transform="translate(817,99)"/>
<path d="M0 0 C4 1 4 1 5.8125 3.9375 C6.204375 4.948125 6.59625 5.95875 7 7 C6.67 7.66 6.34 8.32 6 9 C4.02 6.03 2.04 3.06 0 0 Z " fill="#2175AC" transform="translate(395,99)"/>
<path d="M0 0 C0 0.99 0 1.98 0 3 C-0.66 3 -1.32 3 -2 3 C-2 3.66 -2 4.32 -2 5 C-3.32 4.67 -4.64 4.34 -6 4 C-2.25 0 -2.25 0 0 0 Z " fill="#207ECC" transform="translate(546,83)"/>
<path d="M0 0 C0 0.33 0 0.66 0 1 C-2.97 1 -5.94 1 -9 1 C-8 -1 -8 -1 -6.1875 -1.75 C-3.50171361 -2.05694702 -2.2747813 -1.38111722 0 0 Z " fill="#197DC0" transform="translate(567,78)"/>
<path d="M0 0 C0.33 0 0.66 0 1 0 C0.67 3.3 0.34 6.6 0 10 C-0.66 9.67 -1.32 9.34 -2 9 C-1.125 2.25 -1.125 2.25 0 0 Z " fill="#318BCE" transform="translate(595,51)"/>
</svg>
