<?xml version="1.0" encoding="UTF-8"?>
<svg version="1.1" xmlns="http://www.w3.org/2000/svg" width="204" height="204">
<path d="M0 0 C1.02963867 0.31348389 1.02963867 0.31348389 2.08007812 0.63330078 C27.83077641 8.77955249 48.32010258 26.1310044 60.98828125 49.9296875 C66.70287812 61.15602773 70.37125331 73.12401654 70.1953125 85.75390625 C70.1924826 86.54022934 70.18965271 87.32655243 70.18673706 88.13670349 C70.17567289 90.61213359 70.15059591 93.08718199 70.125 95.5625 C70.11495234 97.2558541 70.10582965 98.94921395 70.09765625 100.64257812 C70.07577898 104.76186253 70.04134718 108.88086689 70 113 C69.34 112.67 68.68 112.34 68 112 C67.61681894 109.60968003 67.34454266 107.28134334 67.125 104.875 C65.04591365 86.08964552 58.98626715 68.71605884 47 54 C46.29810547 53.05447266 46.29810547 53.05447266 45.58203125 52.08984375 C35.35758241 38.92699026 17.69633919 29.96359917 1.45849609 27.29736328 C-13.2577166 25.5173884 -27.9636291 26.14002648 -42 31 C-43.04929687 31.350625 -44.09859375 31.70125 -45.1796875 32.0625 C-65.27798927 39.57978689 -80.39526849 55.21586457 -89.45703125 74.35546875 C-96.9134425 91.96770088 -97.80334016 111.5660514 -90.62890625 129.41015625 C-83.88877866 144.26429836 -72.7820572 155.5953019 -57.5625 161.8125 C-41.44098691 167.55803339 -25.44408086 167.5208615 -9.70703125 160.5390625 C-7.05361009 159.12820158 -4.52010446 157.63514799 -2 156 C-1.0925 155.4225 -0.185 154.845 0.75 154.25 C9.48434018 145.51565982 14.32737004 135.37568222 14.5 123 C14.33950955 112.39643299 11.52669429 104.56561961 4.15625 96.87890625 C-2.17658267 91.36062271 -9.04321713 89.66791496 -17.28125 89.7890625 C-25.38502219 90.41780345 -32.19654062 93.27409242 -38 99 C-42.75413116 104.84286349 -45.46805367 111.40891305 -44.875 119 C-43.7162842 125.71528474 -40.68358218 131.38749213 -35.34765625 135.6796875 C-30.32683566 138.50337695 -24.56851759 139.68703469 -19 141 C-19 141.66 -19 142.32 -19 143 C-27.15609171 146.62492965 -33.97350264 147.19905643 -42.5625 144.5 C-51.66120936 140.81168137 -57.51949088 134.57215173 -61.84375 125.8515625 C-66.41403883 114.58024207 -65.70891648 102.85382387 -61.2265625 91.6640625 C-55.20532451 78.586087 -46.29659025 68.93099351 -32.61328125 63.70703125 C-16.28529488 58.54984513 -1.46019144 58.70808277 14.25 66.1875 C29.4448803 74.32882848 39.08635757 85.75130024 45 102 C50.90584801 122.7261836 48.31855382 143.21906281 38 162 C35.35264774 166.28206261 32.26983794 170.17734773 29 174 C28.44828125 174.65226563 27.8965625 175.30453125 27.328125 175.9765625 C20.05902491 183.85741853 10.66161415 189.55577406 0.9375 193.875 C0.02013062 194.28588867 0.02013062 194.28588867 -0.91577148 194.70507812 C-12.78336863 199.70196113 -24.30034755 200.60856307 -37 200.5625 C-37.81881653 200.5620166 -38.63763306 200.5615332 -39.48126221 200.56103516 C-52.43303343 200.50786463 -64.08393696 199.4797328 -76 194 C-76.69689941 193.68434082 -77.39379883 193.36868164 -78.11181641 193.04345703 C-86.10186208 189.31750005 -93.33153942 184.79005483 -100 179 C-100.80824219 178.33484375 -101.61648437 177.6696875 -102.44921875 176.984375 C-118.78551348 163.07475805 -132.11606035 140.77536654 -134.18685913 119.03857422 C-134.51435835 113.84032001 -134.53128569 108.64420778 -134.5 103.4375 C-134.49790527 102.64008392 -134.49581055 101.84266785 -134.49365234 101.02108765 C-134.4272011 88.76037261 -133.68486931 77.4724182 -129 66 C-128.5659082 64.91066162 -128.5659082 64.91066162 -128.12304688 63.79931641 C-116.87470551 36.305361 -96.4164779 16.0593486 -69.7578125 3.46875 C-47.61322135 -5.77224987 -22.9101429 -6.99198702 0 0 Z " fill="#0284D1" transform="translate(134,4)"/>
<path d="M0 0 C3.09228681 2.60596277 4.35423901 5.57112301 5.9375 9.25 C6.42089844 10.34828125 6.90429688 11.4465625 7.40234375 12.578125 C12.34457613 25.64065311 13.54535682 37.09891824 13.25 50.9375 C13.22987107 52.60349375 13.21163178 54.26951145 13.1953125 55.93554688 C13.15189861 59.95763921 13.08324009 63.97854296 13 68 C12.34 67.67 11.68 67.34 11 67 C10.61681894 64.60968003 10.34454266 62.28134334 10.125 59.875 C8.18208973 42.32004938 2.80969706 25.31831527 -8.203125 11.33203125 C-10.0134949 8.98248596 -11.52176832 6.56865566 -13 4 C-12.34 3.67 -11.68 3.34 -11 3 C-11 3.66 -11 4.32 -11 5 C-10.34 5 -9.68 5 -9 5 C-9 5.99 -9 6.98 -9 8 C-8.38125 8.0825 -7.7625 8.165 -7.125 8.25 C-5 9 -5 9 -3.875 10.875 C-3.58625 11.57625 -3.2975 12.2775 -3 13 C-2.01 14.485 -2.01 14.485 -1 16 C-0.34 14.68 0.32 13.36 1 12 C1.99 12.33 2.98 12.66 4 13 C3.01 14.32 2.02 15.64 1 17 C1.66 17.33 2.32 17.66 3 18 C3.33 17.34 3.66 16.68 4 16 C4.66 16.33 5.32 16.66 6 17 C5.34 15.02 4.68 13.04 4 11 C3.34 11 2.68 11 2 11 C1 8 1 8 1 5 C0.68911632 3.32900023 0.35919668 1.66128463 0 0 Z " fill="#0B7BC4" transform="translate(191,49)"/>
<path d="M0 0 C1 3 1 3 -0.3125 5.9375 C-0.869375 6.948125 -1.42625 7.95875 -2 9 C-2.391875 9.78375 -2.78375 10.5675 -3.1875 11.375 C-3.455625 11.91125 -3.72375 12.4475 -4 13 C-4.99 13 -5.98 13 -7 13 C-7.33 15.31 -7.66 17.62 -8 20 C-8.66 20 -9.32 20 -10 20 C-10.33 26.93 -10.66 33.86 -11 41 C-10.34 41 -9.68 41 -9 41 C-8.73445313 41.67546875 -8.46890625 42.3509375 -8.1953125 43.046875 C-7.84210938 43.93890625 -7.48890625 44.8309375 -7.125 45.75 C-6.77695313 46.63171875 -6.42890625 47.5134375 -6.0703125 48.421875 C-4.69143422 51.78919951 -4.69143422 51.78919951 -3 55 C-2.154375 55.309375 -1.30875 55.61875 -0.4375 55.9375 C0.7690625 56.4634375 0.7690625 56.4634375 2 57 C2.8125 59.625 2.8125 59.625 3 62 C3.61875 62.144375 4.2375 62.28875 4.875 62.4375 C7 63 7 63 9 64 C9 64.66 9 65.32 9 66 C11.97 66 14.94 66 18 66 C17.49019039 61.96621634 17.49019039 61.96621634 14.9375 60.75 C14.298125 60.5025 13.65875 60.255 13 60 C13 59.01 13 58.02 13 57 C13.48984375 57.27585938 13.9796875 57.55171875 14.484375 57.8359375 C17.97081403 59.44922761 21.57897107 60.5094223 25.25 61.625 C25.99507812 61.85445312 26.74015625 62.08390625 27.5078125 62.3203125 C29.3375871 62.88332007 31.16866703 63.44208228 33 64 C33 64.66 33 65.32 33 66 C24.84390829 69.62492965 18.02649736 70.19905643 9.4375 67.5 C0.33879064 63.81168137 -5.51949088 57.57215173 -9.84375 48.8515625 C-14.41687954 37.57323626 -13.68612441 25.88938542 -9.24609375 14.68359375 C-6.81644298 9.45108566 -4.1049964 4.1049964 0 0 Z " fill="#1A82C4" transform="translate(82,81)"/>
<path d="M0 0 C6.54111132 9.81166698 5.36528031 22.46598178 5.1875 33.75 C5.17241601 35.42967541 5.15873422 37.10936403 5.14648438 38.7890625 C5.11379554 42.85970756 5.06222231 46.92970367 5 51 C4.34 50.67 3.68 50.34 3 50 C2.59249818 47.54593346 2.29590314 45.15920831 2.0625 42.6875 C1.39150359 36.38409324 0.26453134 30.45869774 -1.51171875 24.35546875 C-2 22 -2 22 -1 19 C-0.34 19.66 0.32 20.32 1 21 C2.22829149 17.41819894 1.7724407 14.74212728 1.0625 11.0625 C0.34393459 7.29835936 -0.1200674 3.83509416 0 0 Z " fill="#1F71BF" transform="translate(199,66)"/>
<path d="M0 0 C0.66 0 1.32 0 2 0 C0.92851419 2.74279862 -0.19776098 5.44124386 -1.40234375 8.12890625 C-8.94962686 25.00947075 -12.40663023 43.21837552 -7.00390625 61.41015625 C-5.57121057 65.10617662 -3.83467078 68.58670533 -1.890625 72.0390625 C-1.59671875 72.68617188 -1.3028125 73.33328125 -1 74 C-1.495 74.99 -1.495 74.99 -2 76 C-5.24783658 73.83477562 -5.46012647 73.44707315 -6.5 69.9375 C-6.7165625 69.22464844 -6.933125 68.51179688 -7.15625 67.77734375 C-7.4346875 66.86082031 -7.713125 65.94429688 -8 65 C-8.2462915 64.40687012 -8.49258301 63.81374023 -8.74633789 63.20263672 C-11.58017109 55.98264728 -11.47946706 48.92615761 -11.4375 41.25 C-11.45748047 39.96867187 -11.47746094 38.68734375 -11.49804688 37.3671875 C-11.49217261 25.78313475 -8.99814592 15.74675536 -3.25 5.6875 C-2.32960938 4.05361328 -2.32960938 4.05361328 -1.390625 2.38671875 C-0.93171875 1.59910156 -0.4728125 0.81148438 0 0 Z " fill="#1F75B5" transform="translate(48,66)"/>
<path d="M0 0 C0.66 0 1.32 0 2 0 C1.88140625 0.73863281 1.7628125 1.47726563 1.640625 2.23828125 C0.64394665 10.08213984 1.41162986 15.91646413 5 23 C5.56203125 23.70125 6.1240625 24.4025 6.703125 25.125 C7.13109375 25.74375 7.5590625 26.3625 8 27 C7.67 27.99 7.34 28.98 7 30 C8.2065625 30.433125 8.2065625 30.433125 9.4375 30.875 C12 32 12 32 13 34 C12.67 34.66 12.34 35.32 12 36 C9.03 36 6.06 36 3 36 C3 35.34 3 34.68 3 34 C2.01 33.67 1.02 33.34 0 33 C0.474375 32.4225 0.94875 31.845 1.4375 31.25 C2.9484867 29.07417916 3.54036151 27.57397552 4 25 C3.34 25 2.68 25 2 25 C-1.6692799 17.20278021 -2.51483586 8.35574497 0 0 Z " fill="#1188D4" transform="translate(88,111)"/>
<path d="M0 0 C1.23466717 3.70400152 0.30651493 5.05408274 -1.35009766 8.44580078 C-1.70894043 9.14431152 -2.0677832 9.84282227 -2.4375 10.5625 C-2.80149902 11.27905762 -3.16549805 11.99561523 -3.54052734 12.73388672 C-6.69396362 18.75728908 -10.39928688 23.98104024 -15 29 C-15.58265625 29.639375 -16.1653125 30.27875 -16.765625 30.9375 C-18.11558011 32.35298691 -19.5495473 33.68768565 -21 35 C-21.66 35 -22.32 35 -23 35 C-23 34.01 -23 33.02 -23 32 C-22.34 32 -21.68 32 -21 32 C-21 31.01 -21 30.02 -21 29 C-20.01 29 -19.02 29 -18 29 C-18 28.01 -18 27.02 -18 26 C-16.68 26 -15.36 26 -14 26 C-13.67 24.35 -13.34 22.7 -13 21 C-12.01 21 -11.02 21 -10 21 C-10 20.01 -10 19.02 -10 18 C-9.34 18 -8.68 18 -8 18 C-7.87625 17.360625 -7.7525 16.72125 -7.625 16.0625 C-6.8020178 12.02988724 -5.90114025 8.01576093 -5 4 C-4.34 4 -3.68 4 -3 4 C-1.36323743 2.0399719 -1.36323743 2.0399719 0 0 Z " fill="#1677BB" transform="translate(177,150)"/>
<path d="M0 0 C-0.33 0.99 -0.66 1.98 -1 3 C-3.875 4.125 -3.875 4.125 -7 5 C-7.99 5.33 -8.98 5.66 -10 6 C-10.7425 6.12375 -11.485 6.2475 -12.25 6.375 C-16.66295041 7.37794327 -20.76997126 8.76997126 -24 12 C-24.680625 12.144375 -25.36125 12.28875 -26.0625 12.4375 C-27.0215625 12.7159375 -27.0215625 12.7159375 -28 13 C-28.33 13.99 -28.66 14.98 -29 16 C-30.32 15.67 -31.64 15.34 -33 15 C-24.40778249 6.45832494 -12.54830052 -0.78426878 0 0 Z " fill="#227BB9" transform="translate(116,65)"/>
<path d="M0 0 C0.33 0 0.66 0 1 0 C1.125 5.75 1.125 5.75 0 8 C0.33 8.99 0.66 9.98 1 11 C0.38125 11.45375 -0.2375 11.9075 -0.875 12.375 C-3.05919833 13.97108919 -3.05919833 13.97108919 -5 16 C-5.66 16 -6.32 16 -7 16 C-7.33 17.32 -7.66 18.64 -8 20 C-9.65 20.33 -11.3 20.66 -13 21 C-12.67 22.65 -12.34 24.3 -12 26 C-14.66666667 26 -17.33333333 26 -20 26 C-20 25.34 -20 24.68 -20 24 C-18.514657 22.94800656 -16.98446823 21.9590742 -15.4375 21 C-7.74155758 15.76763121 -3.19317395 8.64035303 0 0 Z " fill="#3089C4" transform="translate(147,139)"/>
<path d="M0 0 C1 3 1 3 -0.3125 5.9375 C-0.869375 6.948125 -1.42625 7.95875 -2 9 C-2.391875 9.78375 -2.78375 10.5675 -3.1875 11.375 C-3.455625 11.91125 -3.72375 12.4475 -4 13 C-4.99 13 -5.98 13 -7 13 C-7.33 15.31 -7.66 17.62 -8 20 C-8.66 20 -9.32 20 -10 20 C-10 28.58 -10 37.16 -10 46 C-14.78209913 36.43580174 -13.15574682 25.89860153 -10 16 C-7.41184854 10.15858554 -4.28071653 4.77464536 0 0 Z " fill="#3186C0" transform="translate(82,81)"/>
<path d="M0 0 C0.39083065 2.08042163 0.7621087 4.16452339 1.125 6.25 C1.33382812 7.41015625 1.54265625 8.5703125 1.7578125 9.765625 C2.00266144 13.03554316 1.78779541 14.32492834 0 17 C-2.56919192 14.74113183 -3.68000131 12.79979195 -4.75 9.5625 C-5.01296875 8.80066406 -5.2759375 8.03882812 -5.546875 7.25390625 C-6.04831501 4.75967449 -5.93199647 3.35587998 -5 1 C-3 0 -3 0 0 0 Z " fill="#0480D0" transform="translate(200,71)"/>
<path d="M0 0 C1 3 1 3 1 7 C2.75418428 8.46827389 2.75418428 8.46827389 5 9.5625 C7.25 10.75390625 7.25 10.75390625 9 12 C9 12.99 9 13.98 9 15 C1.42225529 12.29175673 -4.55080679 6.80075406 -10 1 C-2.25 0 -2.25 0 0 0 Z " fill="#0382CE" transform="translate(39,177)"/>
<path d="M0 0 C1.09455818 2.14913249 2.13446647 4.30290341 3.11328125 6.5078125 C3.70689453 7.80332031 3.70689453 7.80332031 4.3125 9.125 C4.70050781 9.99382812 5.08851562 10.86265625 5.48828125 11.7578125 C7.34803403 14.51620551 8.93612589 14.89499622 12 16 C12.8125 18.625 12.8125 18.625 13 21 C13.61875 21.12375 14.2375 21.2475 14.875 21.375 C17 22 17 22 19 24 C15.91431223 24.29879019 14.3799969 24.23879942 11.71875 22.56640625 C6.33121379 17.70055048 0.75563098 12.40872704 -0.296875 4.875 C-0.3125 2.9375 -0.3125 2.9375 0 0 Z " fill="#1579BC" transform="translate(72,122)"/>
<path d="M0 0 C8.86056772 -0.55123348 19.46671805 -0.02218797 27 5 C20.07 4.34 13.14 3.68 6 3 C5.67 3.99 5.34 4.98 5 6 C3.02 6 1.04 6 -1 6 C-0.67 5.01 -0.34 4.02 0 3 C0.99 3 1.98 3 3 3 C3 2.34 3 1.68 3 1 C2.01 0.67 1.02 0.34 0 0 Z " fill="#1D7DBE" transform="translate(117,64)"/>
<path d="M0 0 C0 0.99 0 1.98 0 3 C-0.99 3 -1.98 3 -3 3 C-3 3.66 -3 4.32 -3 5 C-8.22512279 6.46670113 -12.5814234 7.22577402 -18 7 C-18 7.66 -18 8.32 -18 9 C-24.70518586 9.19818283 -30.65176798 9.30844801 -37 7 C-37 6.67 -37 6.34 -37 6 C-35.43765625 6.06960937 -35.43765625 6.06960937 -33.84375 6.140625 C-22.3552305 6.48896652 -10.27702826 5.74685207 0 0 Z " fill="#2D83BD" transform="translate(125,164)"/>
<path d="M0 0 C2.475 0.99 2.475 0.99 5 2 C4.938125 3.093125 4.87625 4.18625 4.8125 5.3125 C4.79294301 10.7689015 6.25656393 15.86002525 8 21 C8.33 21.33 8.66 21.66 9 22 C9.04063832 23.66617115 9.042721 25.33388095 9 27 C6.07493718 23.61308516 4.72566254 19.94772386 3.375 15.75 C3.15626221 15.08411865 2.93752441 14.4182373 2.7121582 13.73217773 C1.24308104 9.12254755 0.29495842 4.81765414 0 0 Z " fill="#1977BF" transform="translate(0,122)"/>
<path d="M0 0 C8.54043886 -0.59932904 15.8933076 1.60751107 24 4 C20.10939581 5.4049404 16.76907638 4.69513239 12.75 4.0625 C10.85507813 3.77052734 10.85507813 3.77052734 8.921875 3.47265625 C7.95765625 3.31667969 6.9934375 3.16070312 6 3 C5.67 4.32 5.34 5.64 5 7 C4.01 6.67 3.02 6.34 2 6 C2 5.01 2 4.02 2 3 C1.34 2.67 0.68 2.34 0 2 C0 1.34 0 0.68 0 0 Z " fill="#127EC5" transform="translate(113,1)"/>
<path d="M0 0 C3.3 0 6.6 0 10 0 C10 0.66 10 1.32 10 2 C11.98 2.66 13.96 3.32 16 4 C16 3.34 16 2.68 16 2 C16.66 2 17.32 2 18 2 C18.33 3.65 18.66 5.3 19 7 C21.97 7.495 21.97 7.495 25 8 C21.69920932 9.10026356 21.06663435 8.94218986 17.91015625 7.890625 C17.12576172 7.63023437 16.34136719 7.36984375 15.53320312 7.1015625 C14.71787109 6.82054687 13.90253906 6.53953125 13.0625 6.25 C12.25103516 5.98445312 11.43957031 5.71890625 10.60351562 5.4453125 C6.32066647 3.99778678 3.73039832 2.79779874 0 0 Z " fill="#1A7CBD" transform="translate(52,194)"/>
<path d="M0 0 C0 0.66 0 1.32 0 2 C-1.58298026 2.4803318 -3.16639978 2.95921612 -4.75 3.4375 C-5.63171875 3.70433594 -6.5134375 3.97117187 -7.421875 4.24609375 C-10 5 -10 5 -12.265625 5.47265625 C-13.12414062 5.73369141 -13.12414062 5.73369141 -14 6 C-14.33 6.66 -14.66 7.32 -15 8 C-16 10 -16 10 -17.8125 10.8125 C-20.38764878 11.03322704 -22.50222685 10.62444329 -25 10 C-21.54009209 7.05201724 -17.69104511 5.49445238 -13.5 3.875 C-12.83613281 3.61074219 -12.17226562 3.34648438 -11.48828125 3.07421875 C-3.67009042 0 -3.67009042 0 0 0 Z " fill="#2382C1" transform="translate(80,3)"/>
<path d="M0 0 C0.33 0 0.66 0 1 0 C1.41753616 5.48886078 -0.05419913 9.54461261 -2 14.5625 C-4.61407455 21.06911692 -4.61407455 21.06911692 -5 28 C-5.99 28.33 -6.98 28.66 -8 29 C-6.77187392 19.1566611 -4.47111378 8.94222757 0 0 Z " fill="#1F76B9" transform="translate(8,63)"/>
<path d="M0 0 C0.33 0 0.66 0 1 0 C3.27859001 10.92502532 4.10705621 21.97588189 2 33 C1.67 33 1.34 33 1 33 C0.385313 21.99051677 -0.18115526 11.03034265 0 0 Z " fill="#237CB9" transform="translate(179,109)"/>
<path d="M0 0 C5.4528666 5.23475194 10.35043077 11.04855139 15 17 C14.01 17 13.02 17 12 17 C12 16.34 12 15.68 12 15 C10.35 14.67 8.7 14.34 7 14 C7 13.34 7 12.68 7 12 C6.34 12 5.68 12 5 12 C5 11.34 5 10.68 5 10 C4.34 10 3.68 10 3 10 C0.96564469 6.27034861 0 4.33094958 0 0 Z " fill="#1678BD" transform="translate(47,142)"/>
<path d="M0 0 C3.16860855 2.65478014 4.50301588 5.83999806 6.1875 9.5625 C6.71730469 10.71878906 7.24710938 11.87507813 7.79296875 13.06640625 C9 16 9 16 9 18 C8.34 18 7.68 18 7 18 C6.67 16.35 6.34 14.7 6 13 C3.03 12.505 3.03 12.505 0 12 C0.185625 10.948125 0.37125 9.89625 0.5625 8.8125 C0.95079331 5.42880118 0.88247485 3.23574112 0 0 Z " fill="#117CC4" transform="translate(170,90)"/>
<path d="M0 0 C1.65 0 3.3 0 5 0 C2.15814097 2.93066713 -0.74026642 5.63365622 -3.875 8.25 C-8.24637052 12.01469742 -11.62240224 16.34524809 -15 21 C-15.33 20.34 -15.66 19.68 -16 19 C-15.505 17.515 -15.505 17.515 -15 16 C-14.34 16 -13.68 16 -13 16 C-13 15.34 -13 14.68 -13 14 C-12.34 14 -11.68 14 -11 14 C-10.7525 13.2575 -10.505 12.515 -10.25 11.75 C-8.8864843 8.75026545 -7.54127785 7.07922733 -5 5 C-4.01 5 -3.02 5 -2 5 C-2 4.34 -2 3.68 -2 3 C-1.34 3 -0.68 3 0 3 C0 2.01 0 1.02 0 0 Z " fill="#1D76B3" transform="translate(66,45)"/>
<path d="M0 0 C0.75023438 0.39832031 1.50046875 0.79664063 2.2734375 1.20703125 C8.72830524 4.54827891 14.94805788 7.22141283 22 9 C22 9.33 22 9.66 22 10 C20.58344207 10.0272415 19.16672955 10.04650467 17.75 10.0625 C16.56664062 10.07990234 16.56664062 10.07990234 15.359375 10.09765625 C13.0838619 10.00347111 11.19277224 9.57537619 9 9 C8.01 9 7.02 9 6 9 C5.67 8.01 5.34 7.02 5 6 C4.34 5.67 3.68 5.34 3 5 C3 4.34 3 3.68 3 3 C2.01 2.67 1.02 2.34 0 2 C0 1.34 0 0.68 0 0 Z " fill="#287DB8" transform="translate(65,160)"/>
<path d="M0 0 C0.66 0 1.32 0 2 0 C1.88140625 0.73863281 1.7628125 1.47726563 1.640625 2.23828125 C0.52794524 10.995071 2.08790669 17.17581339 6 25 C4.68 25 3.36 25 2 25 C-1.6692799 17.20278021 -2.51483586 8.35574497 0 0 Z " fill="#1C77B6" transform="translate(88,111)"/>
<path d="M0 0 C-3.06465093 3.32803766 -6.65477037 4.86136096 -10.75 6.625 C-11.4409375 6.93695313 -12.131875 7.24890625 -12.84375 7.5703125 C-17.26633475 9.49895848 -21.19573244 10.53466518 -26 11 C-23.53913159 8.53913159 -21.63778414 8.16797901 -18.3125 7.1875 C-14.41720229 5.95274654 -11.28785172 4.76891407 -8.0625 2.25 C-4.92590962 -0.05443375 -3.77080392 -0.57133393 0 0 Z " fill="#307FB9" transform="translate(146,191)"/>
<path d="M0 0 C1.90608098 3.21182149 2.22266247 5.53882603 2.125 9.25 C2.10695312 10.14203125 2.08890625 11.0340625 2.0703125 11.953125 C2.03550781 12.96632813 2.03550781 12.96632813 2 14 C1.67 14 1.34 14 1 14 C0.67 12.68 0.34 11.36 0 10 C0 11.98 0 13.96 0 16 C-0.33 16 -0.66 16 -1 16 C-1.53093324 14.06524329 -2.04942317 12.12706845 -2.5625 10.1875 C-2.85253906 9.10855469 -3.14257812 8.02960938 -3.44140625 6.91796875 C-4 4 -4 4 -3 1 C-2.34 1.66 -1.68 2.32 -1 3 C-0.67 2.01 -0.34 1.02 0 0 Z " fill="#0C82D4" transform="translate(201,84)"/>
<path d="M0 0 C0.66 0 1.32 0 2 0 C1.50441205 4.35354956 0.19912401 6.30066031 -2.9375 9.3125 C-3.64777344 10.00988281 -4.35804688 10.70726562 -5.08984375 11.42578125 C-7 13 -7 13 -9 13 C-9 12.01 -9 11.02 -9 10 C-8.34 10 -7.68 10 -7 10 C-7 9.01 -7 8.02 -7 7 C-6.01 7 -5.02 7 -4 7 C-4 6.01 -4 5.02 -4 4 C-2.68 4 -1.36 4 0 4 C0 2.68 0 1.36 0 0 Z " fill="#207DBE" transform="translate(163,172)"/>
<path d="M0 0 C6.26418531 1.48362284 10.91513505 5.24162156 16 9 C13 11 13 11 11 11 C11 10.01 11 9.02 11 8 C10.34 8 9.68 8 9 8 C8.34 7.01 7.68 6.02 7 5 C3.44327821 3.7811879 3.44327821 3.7811879 0 3 C0 2.01 0 1.02 0 0 Z " fill="#247ABB" transform="translate(144,69)"/>
<path d="M0 0 C-0.33 0.99 -0.66 1.98 -1 3 C-3.875 4.125 -3.875 4.125 -7 5 C-7.99 5.33 -8.98 5.66 -10 6 C-11.99961564 6.03920815 -14.00049364 6.04443347 -16 6 C-15.34 5.34 -14.68 4.68 -14 4 C-13.01 4 -12.02 4 -11 4 C-11 3.34 -11 2.68 -11 2 C-7.17679443 0.57741188 -4.08718695 -0.24042276 0 0 Z " fill="#137BC2" transform="translate(116,65)"/>
<path d="M0 0 C0.33 0.66 0.66 1.32 1 2 C1.66 2 2.32 2 3 2 C3 2.99 3 3.98 3 5 C3.61875 5.0825 4.2375 5.165 4.875 5.25 C7 6 7 6 8.0625 7.6875 C8.371875 8.450625 8.68125 9.21375 9 10 C9.556875 11.010625 10.11375 12.02125 10.6875 13.0625 C12 16 12 16 11 19 C10.55269531 18.27554688 10.10539063 17.55109375 9.64453125 16.8046875 C6.36978584 11.5678878 3.11318418 6.61175196 -1 2 C-0.67 1.34 -0.34 0.68 0 0 Z " fill="#1B74B2" transform="translate(179,52)"/>
<path d="M0 0 C0.66 1.32 1.32 2.64 2 4 C2.66 4 3.32 4 4 4 C5.2890625 5.6796875 5.2890625 5.6796875 6.625 7.875 C7.07101563 8.59429687 7.51703125 9.31359375 7.9765625 10.0546875 C9 12 9 12 9 14 C9.66 14 10.32 14 11 14 C11 14.66 11 15.32 11 16 C11.66 16.33 12.32 16.66 13 17 C11.68 17 10.36 17 9 17 C7.20032497 14.74444702 5.73174998 12.63697268 4.25 10.1875 C3.63318359 9.22360352 3.63318359 9.22360352 3.00390625 8.24023438 C0 3.4250026 0 3.4250026 0 0 Z " fill="#1B76B5" transform="translate(9,149)"/>
<path d="M0 0 C4.19108718 6.28663076 5.50995408 14.52067355 5 22 C4.34 22 3.68 22 3 22 C2.49465273 19.27172635 1.99556155 16.54255306 1.5 13.8125 C1.35691406 13.04357422 1.21382812 12.27464844 1.06640625 11.48242188 C0.36761285 7.60578227 -0.19039017 3.958529 0 0 Z " fill="#237DBE" transform="translate(199,66)"/>
<path d="M0 0 C2.84323425 2.46802739 4.15880824 5.08454454 5.6875 8.5 C6.34298828 9.93859375 6.34298828 9.93859375 7.01171875 11.40625 C8 14 8 14 8 17 C7.34 17 6.68 17 6 17 C5.34 15.02 4.68 13.04 4 11 C3.34 11 2.68 11 2 11 C1 8 1 8 1 5 C0.68911632 3.32900023 0.35919668 1.66128463 0 0 Z " fill="#1979BC" transform="translate(191,49)"/>
<path d="M0 0 C4.875 1.75 4.875 1.75 6 4 C5.67 4.66 5.34 5.32 5 6 C2.03 6 -0.94 6 -4 6 C-3.34 5.67 -2.68 5.34 -2 5 C-1.27840576 3.35636866 -0.60648579 1.68949614 0 0 Z " fill="#0284D1" transform="translate(95,141)"/>
<path d="M0 0 C0.33 0 0.66 0 1 0 C1.125 5.75 1.125 5.75 0 8 C0.33 8.99 0.66 9.98 1 11 C-0.98 11.99 -2.96 12.98 -5 14 C-4.34580901 8.93001981 -2.1453591 4.58009223 0 0 Z " fill="#2082BE" transform="translate(147,139)"/>
<path d="M0 0 C0 3 0 3 -1 6 C-1.99 6.495 -1.99 6.495 -3 7 C-3.33 7.66 -3.66 8.32 -4 9 C-6.3140622 9.73075648 -8.64828869 10.40138258 -11 11 C-7.6189962 6.86378916 -4.33409466 3.18683431 0 0 Z " fill="#1E7EBF" transform="translate(40,22)"/>
<path d="M0 0 C3.3 0 6.6 0 10 0 C8.02 0.99 8.02 0.99 6 2 C5.34 1.67 4.68 1.34 4 1 C4.66 2.65 5.32 4.3 6 6 C3.69 6 1.38 6 -1 6 C-0.67 5.01 -0.34 4.02 0 3 C0.99 3 1.98 3 3 3 C3 2.34 3 1.68 3 1 C2.01 0.67 1.02 0.34 0 0 Z " fill="#248DD6" transform="translate(117,64)"/>
<path d="M0 0 C3.63 0.66 7.26 1.32 11 2 C11 2.66 11 3.32 11 4 C7.75 4.8125 7.75 4.8125 4 5 C1.5625 2.5625 1.5625 2.5625 0 0 Z " fill="#2277B5" transform="translate(104,143)"/>
<path d="M0 0 C0.28488281 0.5775 0.56976563 1.155 0.86328125 1.75 C1.58554817 3.17964173 2.3306229 4.59815875 3.10546875 6 C3.46253906 6.66 3.81960937 7.32 4.1875 8 C4.55230469 8.66 4.91710937 9.32 5.29296875 10 C6.14379438 12.40675537 5.83139386 13.62761499 5 16 C1.50397814 10.49376557 -0.7013076 6.59229145 0 0 Z " fill="#1871B6" transform="translate(72,122)"/>
<path d="M0 0 C4.50884026 2.31883213 6.93906776 5.06451569 10 9 C9.67 9.66 9.34 10.32 9 11 C8.34 10.67 7.68 10.34 7 10 C7 9.34 7 8.68 7 8 C6.01 8 5.02 8 4 8 C4 7.01 4 6.02 4 5 C3.01 5 2.02 5 1 5 C0.67 3.35 0.34 1.7 0 0 Z " fill="#207DBA" transform="translate(160,79)"/>
<path d="M0 0 C2.475 0.99 2.475 0.99 5 2 C4.34 4.97 3.68 7.94 3 11 C0.43383368 7.15075052 0.44902324 4.5650696 0 0 Z " fill="#1D81C2" transform="translate(0,122)"/>
<path d="M0 0 C2.64 0.33 5.28 0.66 8 1 C8.33 1.99 8.66 2.98 9 4 C10.65 4.33 12.3 4.66 14 5 C14.33 5.99 14.66 6.98 15 8 C11.45756548 6.63408831 8.07372071 5.09068516 4.6875 3.375 C3.80449219 2.92898437 2.92148438 2.48296875 2.01171875 2.0234375 C1.34785156 1.68570313 0.68398437 1.34796875 0 1 C0 0.67 0 0.34 0 0 Z " fill="#217EB8" transform="translate(151,35)"/>
<path d="M0 0 C4.30614589 0.47846065 6.24880549 1.65926381 9 5 C9.33 5.99 9.66 6.98 10 8 C6.05205855 6.32971708 3.18203882 3.8204435 0 1 C0 0.67 0 0.34 0 0 Z " fill="#2079B4" transform="translate(29,178)"/>
<path d="M0 0 C1.32 0.33 2.64 0.66 4 1 C1.36 2.98 -1.28 4.96 -4 7 C-4 6.34 -4 5.68 -4 5 C-4.66 4.67 -5.32 4.34 -6 4 C-6 3.01 -6 2.02 -6 1 C-5.34 1 -4.68 1 -4 1 C-4 1.99 -4 2.98 -4 4 C-3.34 4 -2.68 4 -2 4 C-1.34 2.68 -0.68 1.36 0 0 Z " fill="#1278BB" transform="translate(98,97)"/>
<path d="M0 0 C0.33 1.32 0.66 2.64 1 4 C-1.66666667 4 -4.33333333 4 -7 4 C-7 3.34 -7 2.68 -7 2 C-4 0 -4 0 0 0 Z " fill="#1D85C5" transform="translate(134,161)"/>
<path d="M0 0 C0 0.33 0 0.66 0 1 C-3.96 1.99 -7.92 2.98 -12 4 C-12 2 -12 2 -10.5 0.3125 C-6.74670195 -1.65798148 -4.12026476 -0.75538187 0 0 Z " fill="#2078BC" transform="translate(114,93)"/>
<path d="M0 0 C9.41002278 -0.18451025 9.41002278 -0.18451025 14 1 C14 1.33 14 1.66 14 2 C7.565 2.495 7.565 2.495 1 3 C0.67 2.01 0.34 1.02 0 0 Z " fill="#1B7BBC" transform="translate(113,1)"/>
<path d="M0 0 C1.33855056 0.78281305 2.67073644 1.57651877 4 2.375 C5.11375 3.03628906 5.11375 3.03628906 6.25 3.7109375 C6.8275 4.13632813 7.405 4.56171875 8 5 C8 5.66 8 6.32 8 7 C8.66 7.33 9.32 7.66 10 8 C8.02 8.99 8.02 8.99 6 10 C5.87625 9.360625 5.7525 8.72125 5.625 8.0625 C5.41875 7.381875 5.2125 6.70125 5 6 C4.34 5.67 3.68 5.34 3 5 C3 4.34 3 3.68 3 3 C2.01 2.67 1.02 2.34 0 2 C0 1.34 0 0.68 0 0 Z " fill="#1F82C2" transform="translate(65,160)"/>
<path d="M0 0 C0.33 0 0.66 0 1 0 C1.19402245 4.17148265 1.01430083 7.28944583 -1 11 C-1.99 11.33 -2.98 11.66 -4 12 C-3.52309796 10.37433394 -3.04340334 8.74948689 -2.5625 7.125 C-2.29566406 6.22007813 -2.02882813 5.31515625 -1.75390625 4.3828125 C-1 2 -1 2 0 0 Z " fill="#2781B7" transform="translate(8,63)"/>
<path d="M0 0 C0.66 0.33 1.32 0.66 2 1 C2.1875 3.875 2.1875 3.875 2 7 C1.01 7.66 0.02 8.32 -1 9 C-1.66 8.67 -2.32 8.34 -3 8 C-1.125 2.25 -1.125 2.25 0 0 Z " fill="#197DBF" transform="translate(12,55)"/>
<path d="M0 0 C-2.12121657 2.33333823 -4.01594365 3.9148886 -7 5 C-9.25 4.625 -9.25 4.625 -11 4 C-7.20307814 1.17438373 -4.81430721 -0.56638908 0 0 Z " fill="#217BB8" transform="translate(146,191)"/>
<path d="M0 0 C3.34373475 0.55728913 6.03312999 1.35173889 9 3 C9 3.99 9 4.98 9 6 C5.06326356 4.68775452 2.77280706 3.08089673 0 0 Z " fill="#1D7AB7" transform="translate(39,186)"/>
<path d="M0 0 C4.571279 0.54855348 8.67435795 1.41744803 13 3 C13 3.66 13 4.32 13 5 C8.15340923 4.40895235 4.39251833 3.02055843 0 1 C0 0.67 0 0.34 0 0 Z " fill="#0479C8" transform="translate(144,31)"/>
<path d="M0 0 C0 0.99 0 1.98 0 3 C2.97 3.495 2.97 3.495 6 4 C2.59598052 5.13732426 0.22543336 4.83989957 -3.25 4.0625 C-4.14203125 3.86785156 -5.0340625 3.67320313 -5.953125 3.47265625 C-6.62859375 3.31667969 -7.3040625 3.16070313 -8 3 C-8 2.67 -8 2.34 -8 2 C-2.25 0 -2.25 0 0 0 Z " fill="#0279C7" transform="translate(138,26)"/>
<path d="M0 0 C2.86724686 0.57344937 3.8614515 0.8614515 6 3 C6.625 5.625 6.625 5.625 7 8 C3.75700849 5.61042731 1.49097658 3.7952131 0 0 Z " fill="#227BB8" transform="translate(22,170)"/>
<path d="M0 0 C3.81684226 1.55500981 6.19195732 4.03595495 9 7 C8.67 7.99 8.34 8.98 8 10 C6.66370254 8.52351062 5.33103329 7.0437367 4 5.5625 C3.2575 4.73878906 2.515 3.91507812 1.75 3.06640625 C0 1 0 1 0 0 Z " fill="#2278B5" transform="translate(136,98)"/>
<path d="M0 0 C2.50535913 2.34877419 3.90564909 4.0911787 4.265625 7.55859375 C4.25149142 10.04963675 4.17369194 12.51524028 4 15 C3.67 15 3.34 15 3 15 C2.49564306 13.0636296 1.99666126 11.12585854 1.5 9.1875 C1.2215625 8.10855469 0.943125 7.02960938 0.65625 5.91796875 C0 3 0 3 0 0 Z " fill="#3381BB" transform="translate(197,85)"/>
<path d="M0 0 C0 0.66 0 1.32 0 2 C-0.598125 2.28875 -1.19625 2.5775 -1.8125 2.875 C-4.19327792 4.04742026 -4.19327792 4.04742026 -7 6 C-7.66 6 -8.32 6 -9 6 C-9 5.01 -9 4.02 -9 3 C-2.25 0 -2.25 0 0 0 Z " fill="#338BCC" transform="translate(105,67)"/>
<path d="M0 0 C1.65 0 3.3 0 5 0 C2.45543849 2.96865509 -0.48994665 4.3619751 -4 6 C-4.33 5.34 -4.66 4.68 -5 4 C-4.34 3.34 -3.68 2.68 -3 2 C-2.01 2 -1.02 2 0 2 C0 1.34 0 0.68 0 0 Z " fill="#1A77BA" transform="translate(75,39)"/>
<path d="M0 0 C1.64936913 0.78427352 3.29441127 1.57765259 4.9375 2.375 C5.85402344 2.81585938 6.77054688 3.25671875 7.71484375 3.7109375 C10 5 10 5 11 7 C6.80639551 6.32902328 3.59665648 4.1441606 0 2 C0 1.34 0 0.68 0 0 Z " fill="#257AB7" transform="translate(152,12)"/>
<path d="M0 0 C4.56454251 0.54339792 7.9728176 1.79463821 12 4 C8.82127065 5.39864092 7.69888978 4.89282517 4.3125 3.6875 C1 2 1 2 0 0 Z " fill="#227BBB" transform="translate(137,6)"/>
<path d="M0 0 C1.6260287 0.06000106 3.25101549 0.1487885 4.875 0.25 C6.23238281 0.31960937 6.23238281 0.31960937 7.6171875 0.390625 C10 1 10 1 11.3203125 3.046875 C11.54460937 3.69140625 11.76890625 4.3359375 12 5 C8 3.66666667 4 2.33333333 0 1 C0 0.67 0 0.34 0 0 Z " fill="#227DBD" transform="translate(124,93)"/>
<path d="M0 0 C0.33 0.99 0.66 1.98 1 3 C-0.21484375 4.82421875 -0.21484375 4.82421875 -1.9375 6.6875 C-2.50339844 7.31011719 -3.06929688 7.93273437 -3.65234375 8.57421875 C-4.09707031 9.04472656 -4.54179688 9.51523438 -5 10 C-5.33 9.34 -5.66 8.68 -6 8 C-4.02 5.36 -2.04 2.72 0 0 Z " fill="#287CB5" transform="translate(82,81)"/>
<path d="M0 0 C0.99 0.33 1.98 0.66 3 1 C-1.39453125 5.00390625 -1.39453125 5.00390625 -3 6 C-3.99 5.67 -4.98 5.34 -6 5 C-4.6875 3.5 -4.6875 3.5 -3 2 C-2.01 2 -1.02 2 0 2 C0 1.34 0 0.68 0 0 Z " fill="#1D78B7" transform="translate(151,185)"/>
<path d="M0 0 C0.556875 0.28875 1.11375 0.5775 1.6875 0.875 C4.08494645 2.0413253 6.51596939 3.0339881 9 4 C9 4.33 9 4.66 9 5 C2.25 4.125 2.25 4.125 0 3 C0 2.01 0 1.02 0 0 Z " fill="#1C7DBA" transform="translate(95,138)"/>
<path d="M0 0 C3.36591866 1.44253657 5.51047079 3.33264727 8 6 C5.21788056 5.62403791 3.4120716 5.32681541 1.1875 3.5625 C0 2 0 2 0 0 Z " fill="#207BBA" transform="translate(167,22)"/>
<path d="M0 0 C3.0916909 2.52956528 3.90931332 5.22454612 5 9 C4.01 8.67 3.02 8.34 2 8 C1.26953125 6.15234375 1.26953125 6.15234375 0.8125 3.9375 C0.65394531 3.20402344 0.49539062 2.47054687 0.33203125 1.71484375 C0.22246094 1.14894531 0.11289063 0.58304687 0 0 Z " fill="#1E77B1" transform="translate(170,90)"/>
<path d="M0 0 C2.02045442 0.60183749 4.02111039 1.27306096 6 2 C6.33 2.66 6.66 3.32 7 4 C5.35 4.33 3.7 4.66 2 5 C2 4.01 2 3.02 2 2 C1.34 2 0.68 2 0 2 C0 1.34 0 0.68 0 0 Z " fill="#167CC0" transform="translate(153,75)"/>
<path d="M0 0 C1.65 0 3.3 0 5 0 C0.25 4.875 0.25 4.875 -2 6 C-2 5.01 -2 4.02 -2 3 C-1.34 3 -0.68 3 0 3 C0 2.01 0 1.02 0 0 Z " fill="#2B7FB6" transform="translate(66,45)"/>
</svg>
